<svg width="359" height="220" viewBox="0 0 359 220" fill="none" xmlns="http://www.w3.org/2000/svg">
<g filter="url(#filter0_dd)">
<rect x="16" y="8" width="327" height="188" rx="4" fill="url(#paint0_angular)"/>
<mask id="mask0" mask-type="alpha" maskUnits="userSpaceOnUse" x="251" y="8" width="92" height="94">
<rect x="251" y="8" width="92" height="94" fill="#C4C4C4"/>
</mask>
<g mask="url(#mask0)">
<mask id="mask1" mask-type="alpha" maskUnits="userSpaceOnUse" x="251" y="-39" width="141" height="141">
<circle cx="321.5" cy="31.5" r="55.5" stroke="#FB5354" stroke-width="30"/>
</mask>
<g mask="url(#mask1)">
<rect x="251" y="8" width="92" height="94" rx="4" fill="#101213"/>
</g>
</g>
<mask id="mask2" mask-type="alpha" maskUnits="userSpaceOnUse" x="16" y="38" width="105" height="140">
<rect x="31" y="53" width="75" height="110" fill="url(#paint1_linear)" stroke="#FB5354" stroke-width="30"/>
</mask>
<g mask="url(#mask2)">
<rect x="16" y="38" width="105" height="104" fill="url(#paint2_linear)"/>
</g>
<path d="M46.8125 144.057H43.1152V147.08H47.4102V148H41.9902V139.469H47.3516V140.395H43.1152V143.137H46.8125V144.057ZM50.7676 143.975L52.1738 141.66H53.4395L51.3652 144.795L53.5039 148H52.25L50.7852 145.627L49.3203 148H48.0605L50.1992 144.795L48.125 141.66H49.3789L50.7676 143.975ZM59.9492 144.9C59.9492 145.865 59.7285 146.643 59.2871 147.232C58.8457 147.822 58.248 148.117 57.4941 148.117C56.7246 148.117 56.1191 147.873 55.6777 147.385V150.438H54.5938V141.66H55.584L55.6367 142.363C56.0781 141.816 56.6914 141.543 57.4766 141.543C58.2383 141.543 58.8398 141.83 59.2812 142.404C59.7266 142.979 59.9492 143.777 59.9492 144.801V144.9ZM58.8652 144.777C58.8652 144.062 58.7129 143.498 58.4082 143.084C58.1035 142.67 57.6855 142.463 57.1543 142.463C56.498 142.463 56.0059 142.754 55.6777 143.336V146.365C56.002 146.943 56.498 147.232 57.166 147.232C57.6855 147.232 58.0977 147.027 58.4023 146.617C58.7109 146.203 58.8652 145.59 58.8652 144.777ZM62.5098 148H61.4258V141.66H62.5098V148ZM61.3379 139.979C61.3379 139.803 61.3906 139.654 61.4961 139.533C61.6055 139.412 61.7656 139.352 61.9766 139.352C62.1875 139.352 62.3477 139.412 62.457 139.533C62.5664 139.654 62.6211 139.803 62.6211 139.979C62.6211 140.154 62.5664 140.301 62.457 140.418C62.3477 140.535 62.1875 140.594 61.9766 140.594C61.7656 140.594 61.6055 140.535 61.4961 140.418C61.3906 140.301 61.3379 140.154 61.3379 139.979ZM67.3145 142.633C67.1504 142.605 66.9727 142.592 66.7812 142.592C66.0703 142.592 65.5879 142.895 65.334 143.5V148H64.25V141.66H65.3047L65.3223 142.393C65.6777 141.826 66.1816 141.543 66.834 141.543C67.0449 141.543 67.2051 141.57 67.3145 141.625V142.633ZM71.9961 148C71.9336 147.875 71.8828 147.652 71.8438 147.332C71.3398 147.855 70.7383 148.117 70.0391 148.117C69.4141 148.117 68.9004 147.941 68.498 147.59C68.0996 147.234 67.9004 146.785 67.9004 146.242C67.9004 145.582 68.1504 145.07 68.6504 144.707C69.1543 144.34 69.8613 144.156 70.7715 144.156H71.8262V143.658C71.8262 143.279 71.7129 142.979 71.4863 142.756C71.2598 142.529 70.9258 142.416 70.4844 142.416C70.0977 142.416 69.7734 142.514 69.5117 142.709C69.25 142.904 69.1191 143.141 69.1191 143.418H68.0293C68.0293 143.102 68.1406 142.797 68.3633 142.504C68.5898 142.207 68.8945 141.973 69.2773 141.801C69.6641 141.629 70.0879 141.543 70.5488 141.543C71.2793 141.543 71.8516 141.727 72.2656 142.094C72.6797 142.457 72.8945 142.959 72.9102 143.6V146.518C72.9102 147.1 72.9844 147.562 73.1328 147.906V148H71.9961ZM70.1973 147.174C70.5371 147.174 70.8594 147.086 71.1641 146.91C71.4688 146.734 71.6895 146.506 71.8262 146.225V144.924H70.9766C69.6484 144.924 68.9844 145.312 68.9844 146.09C68.9844 146.43 69.0977 146.695 69.3242 146.887C69.5508 147.078 69.8418 147.174 70.1973 147.174ZM76.0801 140.125V141.66H77.2637V142.498H76.0801V146.43C76.0801 146.684 76.1328 146.875 76.2383 147.004C76.3438 147.129 76.5234 147.191 76.7773 147.191C76.9023 147.191 77.0742 147.168 77.293 147.121V148C77.0078 148.078 76.7305 148.117 76.4609 148.117C75.9766 148.117 75.6113 147.971 75.3652 147.678C75.1191 147.385 74.9961 146.969 74.9961 146.43V142.498H73.8418V141.66H74.9961V140.125H76.0801ZM79.7129 148H78.6289V141.66H79.7129V148ZM78.541 139.979C78.541 139.803 78.5938 139.654 78.6992 139.533C78.8086 139.412 78.9688 139.352 79.1797 139.352C79.3906 139.352 79.5508 139.412 79.6602 139.533C79.7695 139.654 79.8242 139.803 79.8242 139.979C79.8242 140.154 79.7695 140.301 79.6602 140.418C79.5508 140.535 79.3906 140.594 79.1797 140.594C78.9688 140.594 78.8086 140.535 78.6992 140.418C78.5938 140.301 78.541 140.154 78.541 139.979ZM81.166 144.771C81.166 144.15 81.2871 143.592 81.5293 143.096C81.7754 142.6 82.1152 142.217 82.5488 141.947C82.9863 141.678 83.4844 141.543 84.043 141.543C84.9062 141.543 85.6035 141.842 86.1348 142.439C86.6699 143.037 86.9375 143.832 86.9375 144.824V144.9C86.9375 145.518 86.8184 146.072 86.5801 146.564C86.3457 147.053 86.0078 147.434 85.5664 147.707C85.1289 147.98 84.625 148.117 84.0547 148.117C83.1953 148.117 82.498 147.818 81.9629 147.221C81.4316 146.623 81.166 145.832 81.166 144.848V144.771ZM82.2559 144.9C82.2559 145.604 82.418 146.168 82.7422 146.594C83.0703 147.02 83.5078 147.232 84.0547 147.232C84.6055 147.232 85.043 147.018 85.3672 146.588C85.6914 146.154 85.8535 145.549 85.8535 144.771C85.8535 144.076 85.6875 143.514 85.3555 143.084C85.0273 142.65 84.5898 142.434 84.043 142.434C83.5078 142.434 83.0762 142.646 82.748 143.072C82.4199 143.498 82.2559 144.107 82.2559 144.9ZM89.3223 141.66L89.3574 142.457C89.8418 141.848 90.4746 141.543 91.2559 141.543C92.5957 141.543 93.2715 142.299 93.2832 143.811V148H92.1992V143.805C92.1953 143.348 92.0898 143.01 91.8828 142.791C91.6797 142.572 91.3613 142.463 90.9277 142.463C90.5762 142.463 90.2676 142.557 90.002 142.744C89.7363 142.932 89.5293 143.178 89.3809 143.482V148H88.2969V141.66H89.3223ZM97.6309 144.777C97.6309 143.805 97.8613 143.023 98.3223 142.434C98.7832 141.84 99.3867 141.543 100.133 141.543C100.875 141.543 101.463 141.797 101.896 142.305V139H102.98V148H101.984L101.932 147.32C101.498 147.852 100.895 148.117 100.121 148.117C99.3867 148.117 98.7871 147.816 98.3223 147.215C97.8613 146.613 97.6309 145.828 97.6309 144.859V144.777ZM98.7148 144.9C98.7148 145.619 98.8633 146.182 99.1602 146.588C99.457 146.994 99.8672 147.197 100.391 147.197C101.078 147.197 101.58 146.889 101.896 146.271V143.359C101.572 142.762 101.074 142.463 100.402 142.463C99.8711 142.463 99.457 142.668 99.1602 143.078C98.8633 143.488 98.7148 144.096 98.7148 144.9ZM108.582 148C108.52 147.875 108.469 147.652 108.43 147.332C107.926 147.855 107.324 148.117 106.625 148.117C106 148.117 105.486 147.941 105.084 147.59C104.686 147.234 104.486 146.785 104.486 146.242C104.486 145.582 104.736 145.07 105.236 144.707C105.74 144.34 106.447 144.156 107.357 144.156H108.412V143.658C108.412 143.279 108.299 142.979 108.072 142.756C107.846 142.529 107.512 142.416 107.07 142.416C106.684 142.416 106.359 142.514 106.098 142.709C105.836 142.904 105.705 143.141 105.705 143.418H104.615C104.615 143.102 104.727 142.797 104.949 142.504C105.176 142.207 105.48 141.973 105.863 141.801C106.25 141.629 106.674 141.543 107.135 141.543C107.865 141.543 108.438 141.727 108.852 142.094C109.266 142.457 109.48 142.959 109.496 143.6V146.518C109.496 147.1 109.57 147.562 109.719 147.906V148H108.582ZM106.783 147.174C107.123 147.174 107.445 147.086 107.75 146.91C108.055 146.734 108.275 146.506 108.412 146.225V144.924H107.562C106.234 144.924 105.57 145.312 105.57 146.09C105.57 146.43 105.684 146.695 105.91 146.887C106.137 147.078 106.428 147.174 106.783 147.174ZM112.666 140.125V141.66H113.85V142.498H112.666V146.43C112.666 146.684 112.719 146.875 112.824 147.004C112.93 147.129 113.109 147.191 113.363 147.191C113.488 147.191 113.66 147.168 113.879 147.121V148C113.594 148.078 113.316 148.117 113.047 148.117C112.562 148.117 112.197 147.971 111.951 147.678C111.705 147.385 111.582 146.969 111.582 146.43V142.498H110.428V141.66H111.582V140.125H112.666ZM117.752 148.117C116.893 148.117 116.193 147.836 115.654 147.273C115.115 146.707 114.846 145.951 114.846 145.006V144.807C114.846 144.178 114.965 143.617 115.203 143.125C115.445 142.629 115.781 142.242 116.211 141.965C116.645 141.684 117.113 141.543 117.617 141.543C118.441 141.543 119.082 141.814 119.539 142.357C119.996 142.9 120.225 143.678 120.225 144.689V145.141H115.93C115.945 145.766 116.127 146.271 116.475 146.658C116.826 147.041 117.271 147.232 117.811 147.232C118.193 147.232 118.518 147.154 118.783 146.998C119.049 146.842 119.281 146.635 119.48 146.377L120.143 146.893C119.611 147.709 118.814 148.117 117.752 148.117ZM117.617 142.434C117.18 142.434 116.812 142.594 116.516 142.914C116.219 143.23 116.035 143.676 115.965 144.25H119.141V144.168C119.109 143.617 118.961 143.191 118.695 142.891C118.43 142.586 118.07 142.434 117.617 142.434Z" fill="white"/>
<path d="M152.266 145.293C152.16 146.195 151.826 146.893 151.264 147.385C150.705 147.873 149.961 148.117 149.031 148.117C148.023 148.117 147.215 147.756 146.605 147.033C146 146.311 145.697 145.344 145.697 144.133V143.312C145.697 142.52 145.838 141.822 146.119 141.221C146.404 140.619 146.807 140.158 147.326 139.838C147.846 139.514 148.447 139.352 149.131 139.352C150.037 139.352 150.764 139.605 151.311 140.113C151.857 140.617 152.176 141.316 152.266 142.211H151.135C151.037 141.531 150.824 141.039 150.496 140.734C150.172 140.43 149.717 140.277 149.131 140.277C148.412 140.277 147.848 140.543 147.438 141.074C147.031 141.605 146.828 142.361 146.828 143.342V144.168C146.828 145.094 147.021 145.83 147.408 146.377C147.795 146.924 148.336 147.197 149.031 147.197C149.656 147.197 150.135 147.057 150.467 146.775C150.803 146.49 151.025 145.996 151.135 145.293H152.266ZM156.631 146.506L159.068 139.469H160.299L157.135 148H156.139L152.98 139.469H154.205L156.631 146.506ZM164.271 146.506L166.709 139.469H167.939L164.775 148H163.779L160.621 139.469H161.846L164.271 146.506Z" fill="white"/>
<circle opacity="0.75" cx="290" cy="168" r="12" fill="#F1F3F5"/>
<circle opacity="0.5" cx="307" cy="168" r="12" fill="#F1F3F5"/>
<path d="M45.541 113.314C45.0597 113.314 44.6163 113.2 44.211 112.972C43.8057 112.731 43.4827 112.408 43.242 112.003C43.014 111.598 42.9 111.154 42.9 110.673C42.9 110.179 43.014 109.729 43.242 109.324C43.4827 108.919 43.8057 108.602 44.211 108.374C44.6163 108.133 45.0597 108.013 45.541 108.013C46.035 108.013 46.4847 108.133 46.89 108.374C47.308 108.602 47.631 108.919 47.859 109.324C48.0997 109.729 48.22 110.179 48.22 110.673C48.22 111.154 48.0997 111.598 47.859 112.003C47.631 112.408 47.308 112.731 46.89 112.972C46.4847 113.2 46.035 113.314 45.541 113.314ZM54.6699 113.314C54.1886 113.314 53.7452 113.2 53.3399 112.972C52.9346 112.731 52.6116 112.408 52.3709 112.003C52.1429 111.598 52.0289 111.154 52.0289 110.673C52.0289 110.179 52.1429 109.729 52.3709 109.324C52.6116 108.919 52.9346 108.602 53.3399 108.374C53.7452 108.133 54.1886 108.013 54.6699 108.013C55.1639 108.013 55.6136 108.133 56.0189 108.374C56.4369 108.602 56.7599 108.919 56.9879 109.324C57.2286 109.729 57.3489 110.179 57.3489 110.673C57.3489 111.154 57.2286 111.598 56.9879 112.003C56.7599 112.408 56.4369 112.731 56.0189 112.972C55.6136 113.2 55.1639 113.314 54.6699 113.314ZM63.7988 113.314C63.3175 113.314 62.8741 113.2 62.4688 112.972C62.0635 112.731 61.7405 112.408 61.4998 112.003C61.2718 111.598 61.1578 111.154 61.1578 110.673C61.1578 110.179 61.2718 109.729 61.4998 109.324C61.7405 108.919 62.0635 108.602 62.4688 108.374C62.8741 108.133 63.3175 108.013 63.7988 108.013C64.2928 108.013 64.7425 108.133 65.1478 108.374C65.5658 108.602 65.8888 108.919 66.1168 109.324C66.3575 109.729 66.4778 110.179 66.4778 110.673C66.4778 111.154 66.3575 111.598 66.1168 112.003C65.8888 112.408 65.5658 112.731 65.1478 112.972C64.7425 113.2 64.2928 113.314 63.7988 113.314ZM72.9277 113.314C72.4464 113.314 72.0031 113.2 71.5977 112.972C71.1924 112.731 70.8694 112.408 70.6287 112.003C70.4007 111.598 70.2867 111.154 70.2867 110.673C70.2867 110.179 70.4007 109.729 70.6287 109.324C70.8694 108.919 71.1924 108.602 71.5977 108.374C72.0031 108.133 72.4464 108.013 72.9277 108.013C73.4217 108.013 73.8714 108.133 74.2767 108.374C74.6947 108.602 75.0177 108.919 75.2457 109.324C75.4864 109.729 75.6067 110.179 75.6067 110.673C75.6067 111.154 75.4864 111.598 75.2457 112.003C75.0177 112.408 74.6947 112.731 74.2767 112.972C73.8714 113.2 73.4217 113.314 72.9277 113.314ZM86.584 113.314C86.1026 113.314 85.6593 113.2 85.254 112.972C84.8486 112.731 84.5256 112.408 84.285 112.003C84.057 111.598 83.943 111.154 83.943 110.673C83.943 110.179 84.057 109.729 84.285 109.324C84.5256 108.919 84.8486 108.602 85.254 108.374C85.6593 108.133 86.1026 108.013 86.584 108.013C87.078 108.013 87.5276 108.133 87.933 108.374C88.351 108.602 88.674 108.919 88.902 109.324C89.1426 109.729 89.263 110.179 89.263 110.673C89.263 111.154 89.1426 111.598 88.902 112.003C88.674 112.408 88.351 112.731 87.933 112.972C87.5276 113.2 87.078 113.314 86.584 113.314ZM95.7129 113.314C95.2315 113.314 94.7882 113.2 94.3829 112.972C93.9775 112.731 93.6545 112.408 93.4139 112.003C93.1859 111.598 93.0719 111.154 93.0719 110.673C93.0719 110.179 93.1859 109.729 93.4139 109.324C93.6545 108.919 93.9775 108.602 94.3829 108.374C94.7882 108.133 95.2315 108.013 95.7129 108.013C96.2069 108.013 96.6565 108.133 97.0619 108.374C97.4799 108.602 97.8029 108.919 98.0309 109.324C98.2715 109.729 98.3919 110.179 98.3919 110.673C98.3919 111.154 98.2715 111.598 98.0309 112.003C97.8029 112.408 97.4799 112.731 97.0619 112.972C96.6565 113.2 96.2069 113.314 95.7129 113.314ZM104.842 113.314C104.36 113.314 103.917 113.2 103.512 112.972C103.106 112.731 102.783 112.408 102.543 112.003C102.315 111.598 102.201 111.154 102.201 110.673C102.201 110.179 102.315 109.729 102.543 109.324C102.783 108.919 103.106 108.602 103.512 108.374C103.917 108.133 104.36 108.013 104.842 108.013C105.336 108.013 105.785 108.133 106.191 108.374C106.609 108.602 106.932 108.919 107.16 109.324C107.4 109.729 107.521 110.179 107.521 110.673C107.521 111.154 107.4 111.598 107.16 112.003C106.932 112.408 106.609 112.731 106.191 112.972C105.785 113.2 105.336 113.314 104.842 113.314ZM113.971 113.314C113.489 113.314 113.046 113.2 112.641 112.972C112.235 112.731 111.912 112.408 111.672 112.003C111.444 111.598 111.33 111.154 111.33 110.673C111.33 110.179 111.444 109.729 111.672 109.324C111.912 108.919 112.235 108.602 112.641 108.374C113.046 108.133 113.489 108.013 113.971 108.013C114.465 108.013 114.914 108.133 115.32 108.374C115.738 108.602 116.061 108.919 116.289 109.324C116.529 109.729 116.65 110.179 116.65 110.673C116.65 111.154 116.529 111.598 116.289 112.003C116.061 112.408 115.738 112.731 115.32 112.972C114.914 113.2 114.465 113.314 113.971 113.314ZM127.627 113.314C127.146 113.314 126.702 113.2 126.297 112.972C125.892 112.731 125.569 112.408 125.328 112.003C125.1 111.598 124.986 111.154 124.986 110.673C124.986 110.179 125.1 109.729 125.328 109.324C125.569 108.919 125.892 108.602 126.297 108.374C126.702 108.133 127.146 108.013 127.627 108.013C128.121 108.013 128.571 108.133 128.976 108.374C129.394 108.602 129.717 108.919 129.945 109.324C130.186 109.729 130.306 110.179 130.306 110.673C130.306 111.154 130.186 111.598 129.945 112.003C129.717 112.408 129.394 112.731 128.976 112.972C128.571 113.2 128.121 113.314 127.627 113.314ZM136.756 113.314C136.275 113.314 135.831 113.2 135.426 112.972C135.021 112.731 134.698 112.408 134.457 112.003C134.229 111.598 134.115 111.154 134.115 110.673C134.115 110.179 134.229 109.729 134.457 109.324C134.698 108.919 135.021 108.602 135.426 108.374C135.831 108.133 136.275 108.013 136.756 108.013C137.25 108.013 137.7 108.133 138.105 108.374C138.523 108.602 138.846 108.919 139.074 109.324C139.315 109.729 139.435 110.179 139.435 110.673C139.435 111.154 139.315 111.598 139.074 112.003C138.846 112.408 138.523 112.731 138.105 112.972C137.7 113.2 137.25 113.314 136.756 113.314ZM145.885 113.314C145.403 113.314 144.96 113.2 144.555 112.972C144.149 112.731 143.826 112.408 143.586 112.003C143.358 111.598 143.244 111.154 143.244 110.673C143.244 110.179 143.358 109.729 143.586 109.324C143.826 108.919 144.149 108.602 144.555 108.374C144.96 108.133 145.403 108.013 145.885 108.013C146.379 108.013 146.828 108.133 147.234 108.374C147.652 108.602 147.975 108.919 148.203 109.324C148.443 109.729 148.564 110.179 148.564 110.673C148.564 111.154 148.443 111.598 148.203 112.003C147.975 112.408 147.652 112.731 147.234 112.972C146.828 113.2 146.379 113.314 145.885 113.314ZM155.014 113.314C154.532 113.314 154.089 113.2 153.684 112.972C153.278 112.731 152.955 112.408 152.715 112.003C152.487 111.598 152.373 111.154 152.373 110.673C152.373 110.179 152.487 109.729 152.715 109.324C152.955 108.919 153.278 108.602 153.684 108.374C154.089 108.133 154.532 108.013 155.014 108.013C155.508 108.013 155.957 108.133 156.363 108.374C156.781 108.602 157.104 108.919 157.332 109.324C157.572 109.729 157.693 110.179 157.693 110.673C157.693 111.154 157.572 111.598 157.332 112.003C157.104 112.408 156.781 112.731 156.363 112.972C155.957 113.2 155.508 113.314 155.014 113.314ZM165.972 113.998C167.188 112.985 168.157 112.142 168.879 111.471C169.601 110.787 170.203 110.078 170.684 109.343C171.165 108.608 171.406 107.886 171.406 107.177C171.406 106.531 171.254 106.024 170.95 105.657C170.646 105.29 170.177 105.106 169.544 105.106C168.911 105.106 168.423 105.321 168.081 105.752C167.739 106.17 167.562 106.746 167.549 107.481H164.965C165.016 105.961 165.465 104.808 166.314 104.023C167.175 103.238 168.265 102.845 169.582 102.845C171.026 102.845 172.134 103.231 172.907 104.004C173.68 104.764 174.066 105.771 174.066 107.025C174.066 108.013 173.8 108.957 173.268 109.856C172.736 110.755 172.128 111.541 171.444 112.212C170.76 112.871 169.867 113.669 168.765 114.606H174.37V116.81H164.984V114.834L165.972 113.998ZM176.084 106.797C176.147 105.53 176.591 104.555 177.414 103.871C178.25 103.174 179.346 102.826 180.701 102.826C181.626 102.826 182.417 102.991 183.076 103.32C183.735 103.637 184.229 104.074 184.558 104.631C184.9 105.176 185.071 105.796 185.071 106.493C185.071 107.291 184.862 107.969 184.444 108.526C184.039 109.071 183.551 109.438 182.981 109.628V109.704C183.716 109.932 184.286 110.337 184.691 110.92C185.109 111.503 185.318 112.25 185.318 113.162C185.318 113.922 185.141 114.6 184.786 115.195C184.444 115.79 183.931 116.259 183.247 116.601C182.576 116.93 181.765 117.095 180.815 117.095C179.384 117.095 178.218 116.734 177.319 116.012C176.42 115.29 175.945 114.226 175.894 112.82H178.478C178.503 113.441 178.712 113.941 179.105 114.321C179.51 114.688 180.061 114.872 180.758 114.872C181.404 114.872 181.898 114.695 182.24 114.34C182.595 113.973 182.772 113.504 182.772 112.934C182.772 112.174 182.531 111.629 182.05 111.3C181.569 110.971 180.821 110.806 179.808 110.806H179.257V108.621H179.808C181.607 108.621 182.506 108.019 182.506 106.816C182.506 106.271 182.341 105.847 182.012 105.543C181.695 105.239 181.233 105.087 180.625 105.087C180.03 105.087 179.567 105.252 179.238 105.581C178.921 105.898 178.738 106.303 178.687 106.797H176.084ZM187.306 114.302V112.212L193.519 103.32H196.616V111.984H198.288V114.302H196.616V117H193.956V114.302H187.306ZM194.127 106.17L190.232 111.984H194.127V106.17ZM209.292 105.448H203.136V108.697C203.402 108.368 203.782 108.102 204.276 107.899C204.77 107.684 205.295 107.576 205.853 107.576C206.866 107.576 207.696 107.798 208.342 108.241C208.988 108.684 209.456 109.254 209.748 109.951C210.039 110.635 210.185 111.37 210.185 112.155C210.185 113.612 209.767 114.783 208.931 115.67C208.107 116.557 206.929 117 205.397 117C203.953 117 202.8 116.639 201.939 115.917C201.077 115.195 200.59 114.251 200.476 113.086H203.06C203.174 113.593 203.427 113.998 203.82 114.302C204.225 114.606 204.738 114.758 205.359 114.758C206.106 114.758 206.67 114.524 207.05 114.055C207.43 113.586 207.62 112.966 207.62 112.193C207.62 111.408 207.423 110.812 207.031 110.407C206.651 109.989 206.087 109.78 205.34 109.78C204.808 109.78 204.364 109.913 204.01 110.179C203.655 110.445 203.402 110.8 203.25 111.243H200.704V103.111H209.292V105.448Z" fill="white"/>
<rect opacity="0.15" x="297" y="102" width="34" height="16" rx="2" fill="#101213"/>
<rect opacity="0.25" x="41" y="156" width="34" height="16" rx="2" fill="white"/>
<path d="M49.8947 165.376C49.7027 165.376 49.5267 165.331 49.3667 165.24C49.212 165.144 49.0867 165.019 48.9907 164.864C48.9 164.704 48.8547 164.528 48.8547 164.336C48.8547 164.043 48.956 163.795 49.1587 163.592C49.3614 163.389 49.6067 163.288 49.8947 163.288C50.1934 163.288 50.444 163.389 50.6467 163.592C50.8494 163.795 50.9507 164.043 50.9507 164.336C50.9507 164.629 50.8494 164.877 50.6467 165.08C50.444 165.277 50.1934 165.376 49.8947 165.376ZM53.84 165.376C53.648 165.376 53.472 165.331 53.312 165.24C53.1573 165.144 53.032 165.019 52.936 164.864C52.8453 164.704 52.8 164.528 52.8 164.336C52.8 164.043 52.9013 163.795 53.104 163.592C53.3067 163.389 53.552 163.288 53.84 163.288C54.1387 163.288 54.3893 163.389 54.592 163.592C54.7947 163.795 54.896 164.043 54.896 164.336C54.896 164.629 54.7947 164.877 54.592 165.08C54.3893 165.277 54.1387 165.376 53.84 165.376ZM59.5053 159.448L57.3293 168.4H56.4333L58.6013 159.448H59.5053ZM62.1447 165.376C61.9527 165.376 61.7767 165.331 61.6167 165.24C61.462 165.144 61.3367 165.019 61.2407 164.864C61.15 164.704 61.1047 164.528 61.1047 164.336C61.1047 164.043 61.206 163.795 61.4087 163.592C61.6114 163.389 61.8567 163.288 62.1447 163.288C62.4434 163.288 62.694 163.389 62.8967 163.592C63.0994 163.795 63.2007 164.043 63.2007 164.336C63.2007 164.629 63.0994 164.877 62.8967 165.08C62.694 165.277 62.4434 165.376 62.1447 165.376ZM66.09 165.376C65.898 165.376 65.722 165.331 65.562 165.24C65.4073 165.144 65.282 165.019 65.186 164.864C65.0953 164.704 65.05 164.528 65.05 164.336C65.05 164.043 65.1513 163.795 65.354 163.592C65.5567 163.389 65.802 163.288 66.09 163.288C66.3887 163.288 66.6393 163.389 66.842 163.592C67.0447 163.795 67.146 164.043 67.146 164.336C67.146 164.629 67.0447 164.877 66.842 165.08C66.6393 165.277 66.3887 165.376 66.09 165.376Z" fill="white"/>
<rect opacity="0.25" x="145" y="156" width="34" height="16" rx="2" fill="white"/>
<path d="M158.047 165.376C157.855 165.376 157.679 165.331 157.519 165.24C157.364 165.144 157.239 165.019 157.143 164.864C157.052 164.704 157.007 164.528 157.007 164.336C157.007 164.043 157.108 163.795 157.311 163.592C157.514 163.389 157.759 163.288 158.047 163.288C158.346 163.288 158.596 163.389 158.799 163.592C159.002 163.795 159.103 164.043 159.103 164.336C159.103 164.629 159.002 164.877 158.799 165.08C158.596 165.277 158.346 165.376 158.047 165.376ZM161.992 165.376C161.8 165.376 161.624 165.331 161.464 165.24C161.31 165.144 161.184 165.019 161.088 164.864C160.998 164.704 160.952 164.528 160.952 164.336C160.952 164.043 161.054 163.795 161.256 163.592C161.459 163.389 161.704 163.288 161.992 163.288C162.291 163.288 162.542 163.389 162.744 163.592C162.947 163.795 163.048 164.043 163.048 164.336C163.048 164.629 162.947 164.877 162.744 165.08C162.542 165.277 162.291 165.376 161.992 165.376ZM165.938 165.376C165.746 165.376 165.57 165.331 165.41 165.24C165.255 165.144 165.13 165.019 165.034 164.864C164.943 164.704 164.898 164.528 164.898 164.336C164.898 164.043 164.999 163.795 165.202 163.592C165.404 163.389 165.65 163.288 165.938 163.288C166.236 163.288 166.487 163.389 166.69 163.592C166.892 163.795 166.994 164.043 166.994 164.336C166.994 164.629 166.892 164.877 166.69 165.08C166.487 165.277 166.236 165.376 165.938 165.376Z" fill="white"/>
<rect opacity="0.2" x="41" y="59" width="40" height="32" rx="5" fill="white"/>
</g>
<defs>
<filter id="filter0_dd" x="0" y="0" width="359" height="220" filterUnits="userSpaceOnUse" color-interpolation-filters="sRGB">
<feFlood flood-opacity="0" result="BackgroundImageFix"/>
<feColorMatrix in="SourceAlpha" type="matrix" values="0 0 0 0 0 0 0 0 0 0 0 0 0 0 0 0 0 0 127 0"/>
<feOffset dy="8"/>
<feGaussianBlur stdDeviation="8"/>
<feColorMatrix type="matrix" values="0 0 0 0 0.415686 0 0 0 0 0.443137 0 0 0 0 0.470588 0 0 0 0.16 0"/>
<feBlend mode="normal" in2="BackgroundImageFix" result="effect1_dropShadow"/>
<feColorMatrix in="SourceAlpha" type="matrix" values="0 0 0 0 0 0 0 0 0 0 0 0 0 0 0 0 0 0 127 0"/>
<feOffset dy="3"/>
<feGaussianBlur stdDeviation="2"/>
<feColorMatrix type="matrix" values="0 0 0 0 0.415686 0 0 0 0 0.443137 0 0 0 0 0.470588 0 0 0 0.04 0"/>
<feBlend mode="normal" in2="effect1_dropShadow" result="effect2_dropShadow"/>
<feBlend mode="normal" in="SourceGraphic" in2="effect2_dropShadow" result="shape"/>
</filter>
<radialGradient id="paint0_angular" cx="0" cy="0" r="1" gradientUnits="userSpaceOnUse" gradientTransform="translate(192.077 102) rotate(63.9472) scale(104.632 273.905)">
<stop stop-color="#101213"/>
<stop offset="1" stop-color="#272B30"/>
</radialGradient>
<linearGradient id="paint1_linear" x1="68.5" y1="38" x2="68.5" y2="178" gradientUnits="userSpaceOnUse">
<stop stop-color="#101213"/>
<stop offset="1" stop-color="#101213" stop-opacity="0"/>
</linearGradient>
<linearGradient id="paint2_linear" x1="68.5" y1="114.5" x2="68.5" y2="134" gradientUnits="userSpaceOnUse">
<stop stop-color="#101213"/>
<stop offset="1" stop-color="#101213" stop-opacity="0"/>
</linearGradient>
</defs>
</svg>
