<svg width="18" height="18" viewBox="0 0 18 18" fill="none" xmlns="http://www.w3.org/2000/svg">
<path fill-rule="evenodd" clip-rule="evenodd" d="M12.9675 3.5393L15.675 4.1543L15.42 6.9143L17.25 8.9993L15.42 11.0843L15.675 13.8443L12.9675 14.4593L11.55 16.8443L9 15.7493L6.45 16.8518L5.0325 14.4668L2.325 13.8518L2.58 11.0843L0.75 8.9993L2.58 6.9068L2.325 4.1468L5.0325 3.5393L6.45 1.1543L9 2.2493L11.55 1.1543L12.9675 3.5393ZM12.0075 13.1393L14.0625 12.6743L13.8675 10.5818L15.255 8.9993L13.8675 7.4168L14.0625 5.3243L12.0075 4.8593L10.935 3.0518L9 3.8843L7.065 3.0593L5.9925 4.8668L3.9375 5.3243L4.1325 7.4093L2.745 8.9993L4.1325 10.5743L3.9375 12.6743L5.9925 13.1393L7.065 14.9468L9 14.1143L10.935 14.9468L12.0075 13.1393Z" fill="#F1C93B"/>
<path d="M8.25 11.25H9.75V12.75H8.25V11.25Z" fill="#F1C93B"/>
<path d="M8.25 5.25H9.75V9.75H8.25V5.25Z" fill="#F1C93B"/>
</svg>
