<svg width="150" height="162" viewBox="0 0 150 162" fill="none" xmlns="http://www.w3.org/2000/svg">
<g clip-path="url(#clip0)">
<path d="M50.4575 54.543H99.5477V156.82H50.4575V119.998H54.5461L62.7287 128.181V119.998H87.2765V79.0881H50.4385L50.4575 54.543Z" fill="#F1F3F5"/>
<path d="M62.7289 128.862C62.5522 128.862 62.3782 128.794 62.2477 128.664L54.2635 120.68H21.8185C21.4434 120.68 21.1389 120.375 21.1389 120V79.0898C21.1389 78.7146 21.4434 78.4102 21.8185 78.4102H87.2767C87.6518 78.4102 87.9563 78.7146 87.9563 79.0898V120C87.9563 120.375 87.6518 120.68 87.2767 120.68H63.4112V128.183C63.4112 128.457 63.2454 128.705 62.9925 128.811C62.9056 128.846 62.8158 128.862 62.7289 128.862ZM22.4982 119.32H54.5462C54.7257 119.32 54.8996 119.391 55.0274 119.519L62.0492 126.541V120C62.0492 119.625 62.3537 119.32 62.7289 119.32H86.5943V79.7694H22.4982V119.32Z" fill="black"/>
<path d="M79.0939 92.0423H50.4548C50.0796 92.0423 49.7751 91.7379 49.7751 91.3627V87.2714C49.7751 86.8963 50.0796 86.5918 50.4548 86.5918H79.0912C79.4663 86.5918 79.7708 86.8963 79.7708 87.2714V91.3627C79.7735 91.7379 79.469 92.0423 79.0939 92.0423ZM51.1344 90.6831H78.4116V87.951H51.1344V90.6831Z" fill="black"/>
<path d="M70.9113 100.224H50.4548C50.0796 100.224 49.7751 99.9195 49.7751 99.5444V95.4531C49.7751 95.0779 50.0796 94.7734 50.4548 94.7734H70.9113C71.2864 94.7734 71.5909 95.0779 71.5909 95.4531V99.5444C71.5909 99.9195 71.2864 100.224 70.9113 100.224ZM51.1344 98.8647H70.2317V96.1327H51.1344V98.8647Z" fill="black"/>
<path d="M79.0939 103.637H30.001V111.819H79.0939V103.637Z" fill="#DEE2E6"/>
<path d="M79.0938 112.499H30.0009C29.6258 112.499 29.3213 112.194 29.3213 111.819V103.637C29.3213 103.262 29.6258 102.957 30.0009 102.957H79.0938C79.469 102.957 79.7734 103.262 79.7734 103.637V111.819C79.7734 112.194 79.469 112.499 79.0938 112.499ZM30.6805 111.14H78.4142V104.316H30.6805V111.14Z" fill="black"/>
<path d="M42.2749 87.2715H30.001V99.5454H42.2749V87.2715Z" fill="#33D887"/>
<path d="M42.2748 100.225H30.0009C29.6258 100.225 29.3213 99.9205 29.3213 99.5453V87.2714C29.3213 86.8963 29.6258 86.5918 30.0009 86.5918H42.2748C42.65 86.5918 42.9544 86.8963 42.9544 87.2714V99.5453C42.9544 99.9205 42.65 100.225 42.2748 100.225ZM30.6805 98.8657H41.5952V87.951H30.6805V98.8657Z" fill="black"/>
<path d="M99.5612 161.592H50.4439C47.8205 161.592 45.6865 159.458 45.6865 156.835V119.999C45.6865 119.624 45.991 119.32 46.3661 119.32H54.5488C54.7282 119.32 54.9022 119.39 55.0299 119.518L62.0517 126.54V119.999C62.0517 119.624 62.3562 119.32 62.7314 119.32H86.5968V79.7686H46.3661C45.991 79.7686 45.6865 79.4641 45.6865 79.089V50.439C45.6865 47.8156 47.8205 45.6816 50.4439 45.6816H99.564C102.187 45.6816 104.321 47.8156 104.321 50.439V156.835C104.319 159.458 102.185 161.592 99.5612 161.592ZM47.0458 120.679V156.832C47.0458 158.705 48.5708 160.23 50.4439 160.23H99.564C101.437 160.23 102.962 158.705 102.962 156.832V50.439C102.962 48.5659 101.437 47.0409 99.564 47.0409H50.4439C48.5708 47.0409 47.0458 48.5659 47.0458 50.439V78.4094H87.2765C87.6516 78.4094 87.9561 78.7138 87.9561 79.089V119.999C87.9561 120.374 87.6516 120.679 87.2765 120.679H63.411V128.182C63.411 128.456 63.2452 128.704 62.9923 128.81C62.7368 128.916 62.4459 128.856 62.2529 128.663L54.2687 120.679H47.0458Z" fill="black"/>
<path d="M13.636 79.0895L17.7273 74.9983L21.8186 79.0895L34.0925 66.8184L38.1838 70.9097L21.8186 87.2722L13.636 79.0895Z" fill="#33D887"/>
<path d="M21.8185 88.2332L12.6763 79.091L17.7272 74.04L21.8185 78.1313L34.0924 65.8574L39.1433 70.9083L21.8185 88.2332ZM14.5982 79.0882L21.8185 86.3085L37.2214 70.9056L34.0924 67.7767L21.8185 80.0506L17.7272 75.9593L14.5982 79.0882Z" fill="black"/>
<path d="M95.4565 144.547H54.5461V152.729H95.4565V144.547Z" fill="#CED4DA"/>
<path d="M83.1852 51.1327H66.82C66.4449 51.1327 66.1404 50.8282 66.1404 50.4531C66.1404 50.0779 66.4449 49.7734 66.82 49.7734H83.1852C83.5604 49.7734 83.8649 50.0779 83.8649 50.4531C83.8649 50.8282 83.5604 51.1327 83.1852 51.1327Z" fill="black"/>
<path d="M27.261 0H24.5425V2.71847H27.261V0Z" fill="black"/>
<path d="M35.4516 0H32.7332V2.71847H35.4516V0Z" fill="black"/>
<path d="M43.6342 0H40.9158V2.71847H43.6342V0Z" fill="black"/>
<path d="M51.8142 0H49.0957V2.71847H51.8142V0Z" fill="black"/>
<path d="M10.8957 0H8.17725V2.71847H10.8957V0Z" fill="black"/>
<path d="M2.71847 0H0V2.71847H2.71847V0Z" fill="black"/>
<path d="M19.0864 0H16.3679V2.71847H19.0864V0Z" fill="black"/>
<path d="M59.9941 0H57.2756V2.71847H59.9941V0Z" fill="black"/>
<path d="M68.1765 0H65.458V2.71847H68.1765V0Z" fill="black"/>
<path d="M76.3567 0H73.6382V2.71847H76.3567V0Z" fill="black"/>
<path d="M109.087 0H106.368V2.71847H109.087V0Z" fill="black"/>
<path d="M117.278 0H114.559V2.71847H117.278V0Z" fill="black"/>
<path d="M125.46 0H122.742V2.71847H125.46V0Z" fill="black"/>
<path d="M133.64 0H130.922V2.71847H133.64V0Z" fill="black"/>
<path d="M92.7217 0H90.0032V2.71847H92.7217V0Z" fill="black"/>
<path d="M84.5446 0H81.8262V2.71847H84.5446V0Z" fill="black"/>
<path d="M100.913 0H98.1941V2.71847H100.913V0Z" fill="black"/>
<path d="M141.82 0H139.102V2.71847H141.82V0Z" fill="black"/>
<path d="M27.261 8.18359H24.5425V10.9021H27.261V8.18359Z" fill="black"/>
<path d="M35.4516 8.18359H32.7332V10.9021H35.4516V8.18359Z" fill="black"/>
<path d="M43.6342 8.18359H40.9158V10.9021H43.6342V8.18359Z" fill="black"/>
<path d="M51.8142 8.18359H49.0957V10.9021H51.8142V8.18359Z" fill="black"/>
<path d="M10.8957 8.18359H8.17725V10.9021H10.8957V8.18359Z" fill="black"/>
<path d="M19.0864 8.18359H16.3679V10.9021H19.0864V8.18359Z" fill="black"/>
<path d="M59.9941 8.18359H57.2756V10.9021H59.9941V8.18359Z" fill="black"/>
<path d="M68.1765 8.18359H65.458V10.9021H68.1765V8.18359Z" fill="black"/>
<path d="M76.3567 8.18359H73.6382V10.9021H76.3567V8.18359Z" fill="black"/>
<path d="M109.087 8.18359H106.368V10.9021H109.087V8.18359Z" fill="black"/>
<path d="M117.278 8.18359H114.559V10.9021H117.278V8.18359Z" fill="black"/>
<path d="M125.46 8.18359H122.742V10.9021H125.46V8.18359Z" fill="black"/>
<path d="M133.64 8.18359H130.922V10.9021H133.64V8.18359Z" fill="black"/>
<path d="M92.7217 8.18359H90.0032V10.9021H92.7217V8.18359Z" fill="black"/>
<path d="M84.5446 8.18359H81.8262V10.9021H84.5446V8.18359Z" fill="black"/>
<path d="M100.913 8.18359H98.1941V10.9021H100.913V8.18359Z" fill="black"/>
<path d="M27.261 16.3652H24.5425V19.0837H27.261V16.3652Z" fill="black"/>
<path d="M35.4516 16.3652H32.7332V19.0837H35.4516V16.3652Z" fill="black"/>
<path d="M43.6342 16.3652H40.9158V19.0837H43.6342V16.3652Z" fill="black"/>
<path d="M51.8142 16.3652H49.0957V19.0837H51.8142V16.3652Z" fill="black"/>
<path d="M19.0864 16.3652H16.3679V19.0837H19.0864V16.3652Z" fill="black"/>
<path d="M59.9941 16.3652H57.2756V19.0837H59.9941V16.3652Z" fill="black"/>
<path d="M68.1765 16.3652H65.458V19.0837H68.1765V16.3652Z" fill="black"/>
<path d="M76.3567 16.3652H73.6382V19.0837H76.3567V16.3652Z" fill="black"/>
<path d="M109.087 16.3652H106.368V19.0837H109.087V16.3652Z" fill="black"/>
<path d="M117.278 16.3652H114.559V19.0837H117.278V16.3652Z" fill="black"/>
<path d="M125.46 16.3652H122.742V19.0837H125.46V16.3652Z" fill="black"/>
<path d="M133.64 16.3652H130.922V19.0837H133.64V16.3652Z" fill="black"/>
<path d="M92.7217 16.3652H90.0032V19.0837H92.7217V16.3652Z" fill="black"/>
<path d="M84.5446 16.3652H81.8262V19.0837H84.5446V16.3652Z" fill="black"/>
<path d="M100.913 16.3652H98.1941V19.0837H100.913V16.3652Z" fill="black"/>
<path d="M27.261 24.5449H24.5425V27.2634H27.261V24.5449Z" fill="black"/>
<path d="M35.4516 24.5449H32.7332V27.2634H35.4516V24.5449Z" fill="black"/>
<path d="M43.6342 24.5449H40.9158V27.2634H43.6342V24.5449Z" fill="black"/>
<path d="M51.8142 24.5449H49.0957V27.2634H51.8142V24.5449Z" fill="black"/>
<path d="M59.9941 24.5449H57.2756V27.2634H59.9941V24.5449Z" fill="black"/>
<path d="M68.1765 24.5449H65.458V27.2634H68.1765V24.5449Z" fill="black"/>
<path d="M76.3567 24.5449H73.6382V27.2634H76.3567V24.5449Z" fill="black"/>
<path d="M109.087 24.5449H106.368V27.2634H109.087V24.5449Z" fill="black"/>
<path d="M117.278 24.5449H114.559V27.2634H117.278V24.5449Z" fill="black"/>
<path d="M125.46 24.5449H122.742V27.2634H125.46V24.5449Z" fill="black"/>
<path d="M92.7217 24.5449H90.0032V27.2634H92.7217V24.5449Z" fill="black"/>
<path d="M84.5446 24.5449H81.8262V27.2634H84.5446V24.5449Z" fill="black"/>
<path d="M100.913 24.5449H98.1941V27.2634H100.913V24.5449Z" fill="black"/>
<path d="M35.4516 32.7266H32.7332V35.445H35.4516V32.7266Z" fill="black"/>
<path d="M43.6342 32.7266H40.9158V35.445H43.6342V32.7266Z" fill="black"/>
<path d="M51.8142 32.7266H49.0957V35.445H51.8142V32.7266Z" fill="black"/>
<path d="M59.9941 32.7266H57.2756V35.445H59.9941V32.7266Z" fill="black"/>
<path d="M68.1765 32.7266H65.458V35.445H68.1765V32.7266Z" fill="black"/>
<path d="M76.3567 32.7266H73.6382V35.445H76.3567V32.7266Z" fill="black"/>
<path d="M109.087 32.7266H106.368V35.445H109.087V32.7266Z" fill="black"/>
<path d="M117.278 32.7266H114.559V35.445H117.278V32.7266Z" fill="black"/>
<path d="M92.7217 32.7266H90.0032V35.445H92.7217V32.7266Z" fill="black"/>
<path d="M84.5446 32.7266H81.8262V35.445H84.5446V32.7266Z" fill="black"/>
<path d="M100.913 32.7266H98.1941V35.445H100.913V32.7266Z" fill="black"/>
<path d="M43.6342 40.9102H40.9158V43.6286H43.6342V40.9102Z" fill="black"/>
<path d="M51.8142 40.9102H49.0957V43.6286H51.8142V40.9102Z" fill="black"/>
<path d="M59.9941 40.9102H57.2756V43.6286H59.9941V40.9102Z" fill="black"/>
<path d="M68.1765 40.9102H65.458V43.6286H68.1765V40.9102Z" fill="black"/>
<path d="M76.3567 40.9102H73.6382V43.6286H76.3567V40.9102Z" fill="black"/>
<path d="M109.087 40.9102H106.368V43.6286H109.087V40.9102Z" fill="black"/>
<path d="M92.7217 40.9102H90.0032V43.6286H92.7217V40.9102Z" fill="black"/>
<path d="M84.5446 40.9102H81.8262V43.6286H84.5446V40.9102Z" fill="black"/>
<path d="M100.913 40.9102H98.1941V43.6286H100.913V40.9102Z" fill="black"/>
<path d="M141.82 8.18359H139.102V10.9021H141.82V8.18359Z" fill="black"/>
<path d="M150 0H147.281V2.71847H150V0Z" fill="black"/>
</g>
<defs>
<clipPath id="clip0">
<rect width="150" height="161.592" fill="white"/>
</clipPath>
</defs>
</svg>
