<svg width="62" height="62" viewBox="0 0 62 62" fill="none" xmlns="http://www.w3.org/2000/svg">
<g clip-path="url(#clip0)">
<path d="M0.363647 52.7802L4.7405 48.4238H9.07663V52.7802H0.363647Z" fill="#CED4DA"/>
<path d="M9.07667 53.1425H0.363689C0.216825 53.1425 0.0845016 53.0542 0.0277916 52.9196C-0.0289183 52.785 0.0030719 52.6287 0.106313 52.526L4.48316 48.1696C4.5515 48.1016 4.64311 48.064 4.74054 48.064H9.07667C9.27733 48.064 9.44019 48.2261 9.44019 48.4258V52.7822C9.44019 52.9804 9.27733 53.1425 9.07667 53.1425ZM1.24051 52.4189H8.71314V48.7862H4.89031L1.24051 52.4189Z" fill="#CED4DA"/>
<path d="M52.8888 52.7813H57.2162L52.8888 48.4741V52.7813Z" fill="#CED4DA"/>
<path d="M57.2162 53.1433H52.8888C52.6881 53.1433 52.5253 52.9812 52.5253 52.7814V48.4743C52.5253 48.3281 52.614 48.1964 52.7492 48.14C52.8859 48.0835 53.0415 48.1154 53.1447 48.2181L57.4721 52.5253C57.5754 52.628 57.6073 52.7843 57.5506 52.9189C57.4968 53.055 57.3631 53.1433 57.2162 53.1433ZM53.2523 52.4196H56.3394L53.2523 49.347V52.4196Z" fill="#CED4DA"/>
<path d="M61.6365 52.781L59.4263 50.5825L57.2161 52.781H61.6365Z" fill="#CED4DA"/>
<path d="M61.6366 53.1435H57.2176C57.0707 53.1435 56.9384 53.0552 56.8817 52.9206C56.825 52.786 56.857 52.6297 56.9602 52.527L59.1704 50.3271C59.3129 50.1852 59.5427 50.1852 59.6852 50.3271L61.8954 52.527C61.9986 52.6297 62.0306 52.786 61.9739 52.9206C61.9158 53.0552 61.7834 53.1435 61.6366 53.1435ZM58.0944 52.4198H60.7583L59.4263 51.0941L58.0944 52.4198Z" fill="#CED4DA"/>
<path d="M52.8393 13.5747H9.07666V52.7819H52.8888V48.4747L57.2162 52.7819L61.593 48.4255L52.8393 39.7143V13.5747Z" fill="white"/>
<path d="M57.2161 53.1437C57.1202 53.1437 57.0271 53.1061 56.9588 53.038L53.2523 49.3489V52.7833C53.2523 52.983 53.0894 53.1451 52.8887 53.1451H9.07666C8.87599 53.1451 8.71313 52.983 8.71313 52.7833V13.5747C8.71313 13.375 8.87599 13.2129 9.07666 13.2129H52.8393C53.04 13.2129 53.2028 13.375 53.2028 13.5747V39.5637L61.8489 48.1693C61.9914 48.3112 61.9914 48.5399 61.8489 48.6817L57.4721 53.038C57.4052 53.1061 57.3136 53.1437 57.2161 53.1437ZM9.44019 52.42H52.5252V48.4747C52.5252 48.3286 52.6139 48.1969 52.7491 48.1404C52.8858 48.084 53.0414 48.1158 53.1447 48.2186L57.2147 52.2695L61.0768 48.4255L52.5805 39.969C52.5121 39.901 52.4743 39.8098 52.4743 39.7128V13.9365H9.44019V52.42Z" fill="#101213"/>
<path d="M41.9102 41.9839C46.7688 41.9839 50.7075 38.0637 50.7075 33.2278C50.7075 28.3919 46.7688 24.4717 41.9102 24.4717C37.0516 24.4717 33.1129 28.3919 33.1129 33.2278C33.1129 38.0637 37.0516 41.9839 41.9102 41.9839Z" fill="#33D887"/>
<path d="M41.9102 42.3458C36.8587 42.3458 32.7494 38.2557 32.7494 33.2278C32.7494 28.1999 36.8587 24.1099 41.9102 24.1099C46.9618 24.1099 51.0711 28.1999 51.0711 33.2278C51.0711 38.2557 46.9618 42.3458 41.9102 42.3458ZM41.9102 24.8335C37.26 24.8335 33.4764 28.5994 33.4764 33.2278C33.4764 37.8563 37.26 41.6221 41.9102 41.6221C46.5604 41.6221 50.344 37.8563 50.344 33.2278C50.344 28.5994 46.5604 24.8335 41.9102 24.8335Z" fill="#101213"/>
<path d="M9.07666 13.5737L13.4506 9.22021H17.8274L13.4666 13.5607L9.07666 13.5737Z" fill="#DEE2E6"/>
<path d="M9.0767 13.9355C8.92984 13.9355 8.79751 13.8472 8.7408 13.7126C8.68409 13.578 8.71608 13.4217 8.81933 13.3175L13.1933 8.96405C13.2616 8.89603 13.3532 8.8584 13.4506 8.8584H17.8275C17.9744 8.8584 18.1067 8.94668 18.1634 9.08128C18.2201 9.21588 18.1881 9.37219 18.0849 9.47495L13.724 13.8168C13.6557 13.8848 13.5641 13.9225 13.4681 13.9225L9.0767 13.9355C9.0767 13.9355 9.07816 13.9355 9.0767 13.9355ZM13.6004 9.58204L9.95644 13.209L13.3154 13.1988L16.9492 9.58204H13.6004Z" fill="#101213"/>
<path d="M22.2581 13.5737H52.8393L48.4653 9.21875H26.6L22.2581 13.5737Z" fill="#DEE2E6"/>
<path d="M52.8393 13.9355H22.2581C22.1112 13.9355 21.9789 13.8472 21.9222 13.7126C21.8655 13.578 21.896 13.4217 21.9993 13.3189L26.3412 8.96403C26.4096 8.89601 26.5026 8.85693 26.5986 8.85693H48.4654C48.5614 8.85693 48.6544 8.89456 48.7228 8.96259L53.0982 13.3175C53.2014 13.4202 53.2334 13.5766 53.1767 13.7112C53.12 13.8472 52.9877 13.9355 52.8393 13.9355ZM23.1306 13.2118H51.9625L48.3142 9.58058H26.7513L23.1306 13.2118Z" fill="#101213"/>
<path d="M35.3261 44.083H13.4434V48.4321H35.3261V44.083Z" fill="#DEE2E6"/>
<path d="M35.3261 48.794H13.4434C13.2427 48.794 13.0798 48.6319 13.0798 48.4322V44.083C13.0798 43.8833 13.2427 43.7212 13.4434 43.7212H35.3261C35.5268 43.7212 35.6897 43.8833 35.6897 44.083V48.4322C35.6897 48.6319 35.5268 48.794 35.3261 48.794ZM13.8069 48.0703H34.9626V44.4448H13.8069V48.0703Z" fill="#DEE2E6"/>
<path d="M24.3855 35.3994H13.4434V39.7413H24.3855V35.3994Z" fill="#DEE2E6"/>
<path d="M24.3855 40.1031H13.4434C13.2427 40.1031 13.0798 39.941 13.0798 39.7413V35.3994C13.0798 35.1997 13.2427 35.0376 13.4434 35.0376H24.3855C24.5861 35.0376 24.749 35.1997 24.749 35.3994V39.7413C24.749 39.941 24.5861 40.1031 24.3855 40.1031ZM13.8069 39.3795H24.022V35.7612H13.8069V39.3795Z" fill="#DEE2E6"/>
<path d="M41.9103 39.813C45.5644 39.813 48.5265 36.8647 48.5265 33.2278C48.5265 29.5909 45.5644 26.6426 41.9103 26.6426C38.2563 26.6426 35.2942 29.5909 35.2942 33.2278C35.2942 36.8647 38.2563 39.813 41.9103 39.813Z" fill="white"/>
<path d="M41.9103 40.1748C38.0613 40.1748 34.9307 37.0588 34.9307 33.2278C34.9307 29.3968 38.0613 26.2808 41.9103 26.2808C45.7593 26.2808 48.89 29.3968 48.89 33.2278C48.89 37.0588 45.7593 40.1748 41.9103 40.1748ZM41.9103 27.0044C38.4627 27.0044 35.6577 29.7962 35.6577 33.2278C35.6577 36.6593 38.4627 39.4511 41.9103 39.4511C45.358 39.4511 48.163 36.6593 48.163 33.2278C48.163 29.7962 45.358 27.0044 41.9103 27.0044Z" fill="#101213"/>
<path d="M50.6349 42.2737C50.5418 42.2737 50.4488 42.239 50.3775 42.1681L47.8328 39.6353C47.7616 39.5644 47.7267 39.4718 47.7267 39.3791C47.7267 39.2865 47.7616 39.1939 47.8328 39.123C47.9753 38.9811 48.2051 38.9811 48.3476 39.123L50.8923 41.6557C50.9635 41.7266 50.9984 41.8193 50.9984 41.9119C50.9984 42.0045 50.9635 42.0972 50.8923 42.1681C50.821 42.239 50.7279 42.2737 50.6349 42.2737Z" fill="#101213"/>
<path d="M52.8398 39.7133L48.4628 44.0698L57.2158 52.7819L61.5928 48.4253L52.8398 39.7133Z" fill="#33D887"/>
<path d="M57.2161 53.1435C57.1201 53.1435 57.0271 53.1059 56.9587 53.0379L48.205 44.3252C48.1367 44.2571 48.0989 44.166 48.0989 44.069C48.0989 43.972 48.1367 43.8808 48.205 43.8128L52.5819 39.4565C52.7244 39.3146 52.9541 39.3146 53.0966 39.4565L61.8503 48.1692C61.9928 48.311 61.9928 48.5397 61.8503 48.6815L57.4735 53.0379C57.4051 53.1059 57.3135 53.1435 57.2161 53.1435ZM48.9772 44.0704L57.2161 52.2708L61.0782 48.4268L52.8393 40.2264L48.9772 44.0704Z" fill="#101213"/>
<path d="M33.1857 12.0982C33.5872 12.0982 33.9127 11.7742 33.9127 11.3745C33.9127 10.9749 33.5872 10.6509 33.1857 10.6509C32.7841 10.6509 32.4586 10.9749 32.4586 11.3745C32.4586 11.7742 32.7841 12.0982 33.1857 12.0982Z" fill="#101213"/>
<path d="M28.8234 12.0982C29.2249 12.0982 29.5504 11.7742 29.5504 11.3745C29.5504 10.9749 29.2249 10.6509 28.8234 10.6509C28.4218 10.6509 28.0963 10.9749 28.0963 11.3745C28.0963 11.7742 28.4218 12.0982 28.8234 12.0982Z" fill="#101213"/>
<path d="M37.548 12.0982C37.9495 12.0982 38.275 11.7742 38.275 11.3745C38.275 10.9749 37.9495 10.6509 37.548 10.6509C37.1464 10.6509 36.8209 10.9749 36.8209 11.3745C36.8209 11.7742 37.1464 12.0982 37.548 12.0982Z" fill="#101213"/>
<path d="M41.9103 12.0982C42.3118 12.0982 42.6373 11.7742 42.6373 11.3745C42.6373 10.9749 42.3118 10.6509 41.9103 10.6509C41.5087 10.6509 41.1832 10.9749 41.1832 11.3745C41.1832 11.7742 41.5087 12.0982 41.9103 12.0982Z" fill="#101213"/>
<path d="M46.2726 12.0982C46.6741 12.0982 46.9996 11.7742 46.9996 11.3745C46.9996 10.9749 46.6741 10.6509 46.2726 10.6509C45.871 10.6509 45.5455 10.9749 45.5455 11.3745C45.5455 11.7742 45.871 12.0982 46.2726 12.0982Z" fill="#101213"/>
<path d="M13.4797 22.2889V13.5747H22.2582V22.2889L17.8682 17.9209L13.4797 22.2889Z" fill="#4F575E"/>
<path d="M22.2582 22.6507C22.1636 22.6507 22.0706 22.6145 22.0008 22.545L17.8682 18.4318L13.7357 22.545C13.6324 22.6478 13.4754 22.6796 13.3401 22.6232C13.2049 22.5667 13.1162 22.435 13.1162 22.2889V13.5747C13.1162 13.375 13.2791 13.2129 13.4797 13.2129H22.2582C22.4588 13.2129 22.6217 13.375 22.6217 13.5747V22.2889C22.6217 22.435 22.533 22.5667 22.3977 22.6232C22.3527 22.642 22.3047 22.6507 22.2582 22.6507ZM17.8682 17.5591C17.9642 17.5591 18.0573 17.5967 18.1256 17.6648L21.8946 21.4161V13.9365H13.8433V21.4161L17.6123 17.6648C17.6792 17.5967 17.7722 17.5591 17.8682 17.5591Z" fill="#4F575E"/>
<path d="M17.8274 9.22021L13.4666 13.5606H22.2581L26.6 9.23903L17.8274 9.22021Z" fill="#4F575E"/>
<path d="M22.2581 13.923H13.4666C13.3197 13.923 13.1874 13.8347 13.1307 13.7001C13.074 13.5655 13.106 13.4092 13.2092 13.3064L17.5701 8.966C17.6384 8.89798 17.73 8.86035 17.8274 8.86035C17.8274 8.86035 17.8274 8.86035 17.8289 8.86035L26.6015 8.87917C26.7484 8.87917 26.8807 8.96745 26.936 9.1035C26.9912 9.23954 26.9607 9.3944 26.8574 9.49716L22.5155 13.8188C22.4471 13.8854 22.3541 13.923 22.2581 13.923ZM14.3434 13.1993H22.1069L25.7232 9.59992L17.9758 9.58255L14.3434 13.1993Z" fill="#4F575E"/>
</g>
<defs>
<clipPath id="clip0">
<rect width="62" height="62" fill="white"/>
</clipPath>
</defs>
</svg>
