<svg width="200" height="177" viewBox="0 0 200 177" fill="none" xmlns="http://www.w3.org/2000/svg">
<g clip-path="url(#clip0)">
<path d="M69.2336 0.72583H135.24C138.887 0.72583 141.841 4.06985 141.841 8.19183V150.557C141.841 154.679 138.887 158.023 135.24 158.023H69.2336C65.5871 158.023 62.6329 154.679 62.6329 150.557V8.19183C62.6329 4.06695 65.5871 0.72583 69.2336 0.72583Z" fill="#F1F3F5"/>
<path d="M135.24 158.748H69.2335C65.188 158.748 61.8994 155.073 61.8994 150.557V8.1917C61.8994 3.67494 65.188 0 69.2335 0H135.24C139.286 0 142.574 3.67494 142.574 8.1917V150.557C142.574 155.073 139.286 158.748 135.24 158.748ZM69.2335 1.4514C65.9977 1.4514 63.3662 4.47612 63.3662 8.1917V150.557C63.3662 154.272 65.9977 157.297 69.2335 157.297H135.24C138.476 157.297 141.107 154.272 141.107 150.557V8.1917C141.107 4.47612 138.476 1.4514 135.24 1.4514H69.2335Z" fill="black"/>
<path d="M71.3664 18.2268H0.733521V101.227H71.3664V18.2268Z" fill="white"/>
<path d="M71.3663 101.955H0.733407C0.328566 101.955 0 101.63 0 101.229V18.2267C0 17.8261 0.328566 17.501 0.733407 17.501H71.3663C71.7712 17.501 72.0997 17.8261 72.0997 18.2267V101.226C72.0997 101.63 71.7712 101.955 71.3663 101.955ZM1.46681 100.504H70.6329V18.9524H1.46681V100.504Z" fill="black"/>
<path d="M199.27 105.63H181.609V166.789H199.27V105.63Z" fill="#CED4DA"/>
<path d="M199.267 167.515H181.606C181.201 167.515 180.873 167.19 180.873 166.789V105.63C180.873 105.229 181.201 104.904 181.606 104.904H199.267C199.671 104.904 200 105.229 200 105.63V166.789C200 167.19 199.671 167.515 199.267 167.515ZM182.342 166.063H198.536V106.356H182.342V166.063Z" fill="black"/>
<path d="M190.437 158.052L181.609 166.789H199.267L190.437 158.052Z" fill="#8C8F9B"/>
<path d="M199.267 167.515H181.606C181.31 167.515 181.043 167.338 180.929 167.068C180.814 166.798 180.879 166.484 181.087 166.278L189.917 157.541C190.193 157.268 190.68 157.268 190.956 157.541L199.786 166.278C199.994 166.484 200.059 166.798 199.944 167.068C199.833 167.338 199.563 167.515 199.267 167.515ZM183.378 166.063H197.498L190.439 159.079L183.378 166.063Z" fill="black"/>
<path d="M191.17 114.367H189.703V158.052H191.17V114.367Z" fill="black"/>
<path d="M181.609 105.63H128.631V166.789H181.609V105.63Z" fill="white"/>
<path d="M181.609 167.515H128.631C128.226 167.515 127.897 167.19 127.897 166.789V105.63C127.897 105.229 128.226 104.904 128.631 104.904H181.609C182.014 104.904 182.343 105.229 182.343 105.63V166.789C182.343 167.19 182.014 167.515 181.609 167.515ZM129.364 166.063H180.876V106.356H129.364V166.063Z" fill="black"/>
<path d="M132.972 131.828H124.142V136.196H132.972V131.828Z" fill="#33D887"/>
<path d="M132.972 136.922H124.142C123.737 136.922 123.409 136.597 123.409 136.196V131.828C123.409 131.427 123.737 131.102 124.142 131.102H132.972C133.377 131.102 133.706 131.427 133.706 131.828V136.196C133.706 136.597 133.377 136.922 132.972 136.922ZM124.876 135.471H132.239V132.553H124.876V135.471Z" fill="black"/>
<path d="M137.388 175.512V140.565L132.973 136.196H124.142L119.727 140.565V175.512H137.388Z" fill="white"/>
<path d="M137.388 176.238H119.727C119.322 176.238 118.994 175.912 118.994 175.512V140.565C118.994 140.374 119.07 140.188 119.208 140.051L123.623 135.683C123.761 135.546 123.946 135.471 124.142 135.471H132.973C133.166 135.471 133.354 135.546 133.492 135.683L137.907 140.051C138.045 140.188 138.121 140.371 138.121 140.565V175.512C138.121 175.912 137.793 176.238 137.388 176.238ZM120.461 174.786H136.654V140.864L132.67 136.922H124.448L120.464 140.864V174.786H120.461Z" fill="black"/>
<path d="M128.558 158.037L132.973 153.668H137.388V175.512H119.727V158.011L128.558 158.037Z" fill="#33D887"/>
<path d="M137.388 176.238H119.727C119.322 176.238 118.994 175.912 118.994 175.512V158.011C118.994 157.819 119.07 157.634 119.211 157.497C119.349 157.361 119.545 157.294 119.73 157.285L128.255 157.311L132.453 153.157C132.591 153.021 132.776 152.946 132.973 152.946H137.388C137.793 152.946 138.121 153.271 138.121 153.671V175.515C138.121 175.912 137.793 176.238 137.388 176.238ZM120.461 174.786H136.654V154.394H133.275L129.074 158.551C128.936 158.687 128.751 158.763 128.555 158.763C128.555 158.763 128.555 158.763 128.552 158.763L120.458 158.74V174.786H120.461Z" fill="black"/>
<path d="M190.451 79.5018L181.574 79.4844L177.209 83.8037V105.63H190.451V79.5018Z" fill="white"/>
<path d="M190.451 106.356H177.206C176.801 106.356 176.472 106.03 176.472 105.63V83.8009C176.472 83.6093 176.549 83.4236 176.686 83.2871L181.052 78.9678C181.19 78.8313 181.374 78.7559 181.571 78.7559L190.451 78.7733C190.856 78.7733 191.184 79.0984 191.184 79.499V105.627C191.184 106.03 190.856 106.356 190.451 106.356ZM177.942 104.904H189.721V80.2247L181.879 80.2073L177.945 84.0999V104.904H177.942Z" fill="black"/>
<path d="M186.039 96.8926H177.253V101.261H186.039V96.8926Z" fill="#DEE2E6"/>
<path d="M186.036 101.987H177.25C176.845 101.987 176.516 101.662 176.516 101.261V96.8924C176.516 96.4919 176.845 96.1667 177.25 96.1667H186.036C186.441 96.1667 186.769 96.4919 186.769 96.8924V101.261C186.769 101.662 186.444 101.987 186.036 101.987ZM177.986 100.535H185.306V97.6181H177.986V100.535Z" fill="black"/>
<path d="M186.039 88.158H177.209V92.5267H186.039V88.158Z" fill="#DEE2E6"/>
<path d="M186.036 93.2525H177.206C176.801 93.2525 176.472 92.9274 176.472 92.5268V88.1581C176.472 87.7575 176.801 87.4324 177.206 87.4324H186.036C186.441 87.4324 186.769 87.7575 186.769 88.1581V92.5268C186.769 92.9274 186.444 93.2525 186.036 93.2525ZM177.942 91.8011H185.305V88.8838H177.942V91.8011Z" fill="black"/>
<path d="M172.849 79.5018L163.972 79.4844L159.607 83.8037V105.63H172.849V79.5018Z" fill="white"/>
<path d="M172.849 106.356H159.604C159.199 106.356 158.871 106.03 158.871 105.63V83.8009C158.871 83.6093 158.947 83.4236 159.085 83.2871L163.45 78.9678C163.588 78.8313 163.773 78.7559 163.969 78.7559L172.849 78.7733C173.254 78.7733 173.583 79.0984 173.583 79.499V105.627C173.583 106.03 173.254 106.356 172.849 106.356ZM160.34 104.904H172.119V80.2247L164.277 80.2073L160.343 84.0999V104.904H160.34Z" fill="black"/>
<path d="M168.437 96.8926H159.651V101.261H168.437V96.8926Z" fill="#DEE2E6"/>
<path d="M168.434 101.987H159.648C159.243 101.987 158.915 101.662 158.915 101.261V96.8924C158.915 96.4919 159.243 96.1667 159.648 96.1667H168.434C168.839 96.1667 169.168 96.4919 169.168 96.8924V101.261C169.168 101.662 168.842 101.987 168.434 101.987ZM160.384 100.535H167.704V97.6181H160.384V100.535Z" fill="black"/>
<path d="M168.437 88.158H159.607V92.5267H168.437V88.158Z" fill="#DEE2E6"/>
<path d="M168.434 93.2525H159.604C159.199 93.2525 158.871 92.9274 158.871 92.5268V88.1581C158.871 87.7575 159.199 87.4324 159.604 87.4324H168.434C168.839 87.4324 169.168 87.7575 169.168 88.1581V92.5268C169.168 92.9274 168.842 93.2525 168.434 93.2525ZM160.34 91.8011H167.704V88.8838H160.34V91.8011Z" fill="black"/>
<path d="M141.961 92.4626H137.546V96.8313H141.961V92.4626Z" fill="#CED4DA"/>
<path d="M142.694 97.5572H136.813V91.7371H142.694V97.5572ZM138.279 96.1058H141.228V93.1885H138.279V96.1058Z" fill="#101213"/>
<path d="M133.131 101.2L137.546 96.8313H141.961L146.376 101.2V105.63H132.973L133.131 101.2Z" fill="white"/>
<path d="M146.376 106.356H132.973C132.773 106.356 132.582 106.274 132.444 106.135C132.307 105.996 132.233 105.801 132.239 105.604L132.398 101.174C132.403 100.991 132.48 100.817 132.612 100.686L137.027 96.3176C137.165 96.1812 137.349 96.1057 137.546 96.1057H141.961C142.155 96.1057 142.342 96.1812 142.48 96.3176L146.895 100.686C147.033 100.823 147.11 101.006 147.11 101.2V105.63C147.11 106.03 146.781 106.356 146.376 106.356ZM133.732 104.904H145.643V101.499L141.659 97.5571H137.851L133.856 101.511L133.732 104.904Z" fill="black"/>
<path d="M141.961 88.094H137.546V92.4627H141.961V88.094Z" fill="white"/>
<path d="M141.961 93.1885H137.546C137.141 93.1885 136.813 92.8634 136.813 92.4628V88.0941C136.813 87.6935 137.141 87.3684 137.546 87.3684H141.961C142.366 87.3684 142.694 87.6935 142.694 88.0941V92.4628C142.694 92.8634 142.366 93.1885 141.961 93.1885ZM138.279 91.7371H141.228V88.8198H138.279V91.7371Z" fill="black"/>
<path d="M172.908 31.2893H115.515V40.0267H172.908V31.2893Z" fill="white"/>
<path d="M172.908 40.7523H115.515C115.11 40.7523 114.781 40.4272 114.781 40.0266V31.2892C114.781 30.8886 115.11 30.5635 115.515 30.5635H172.908C173.313 30.5635 173.641 30.8886 173.641 31.2892V40.0266C173.641 40.4272 173.313 40.7523 172.908 40.7523ZM116.248 39.3009H172.175V32.0149H116.248V39.3009Z" fill="black"/>
<path d="M181.738 48.7642H124.345V57.5016H181.738V48.7642Z" fill="white"/>
<path d="M181.738 58.2271H124.345C123.94 58.2271 123.611 57.902 123.611 57.5014V48.764C123.611 48.3634 123.94 48.0383 124.345 48.0383H181.738C182.143 48.0383 182.472 48.3634 182.472 48.764V57.5014C182.472 57.902 182.143 58.2271 181.738 58.2271ZM125.078 56.7757H181.005V49.4897H125.078V56.7757Z" fill="black"/>
<path d="M168.493 36.3835H124.239C123.834 36.3835 123.506 36.0584 123.506 35.6578C123.506 35.2572 123.834 34.9321 124.239 34.9321H168.493C168.898 34.9321 169.226 35.2572 169.226 35.6578C169.226 36.0584 168.898 36.3835 168.493 36.3835Z" fill="black"/>
<path d="M115.438 5.916H89.1824C88.7775 5.916 88.449 5.59089 88.449 5.1903C88.449 4.78971 88.7775 4.4646 89.1824 4.4646H115.438C115.843 4.4646 116.172 4.78971 116.172 5.1903C116.172 5.59089 115.843 5.916 115.438 5.916Z" fill="black"/>
<path d="M177.323 53.8586H133.04C132.635 53.8586 132.307 53.5335 132.307 53.1329C132.307 52.7323 132.635 52.4072 133.04 52.4072H177.323C177.728 52.4072 178.057 52.7323 178.057 53.1329C178.057 53.5335 177.728 53.8586 177.323 53.8586Z" fill="black"/>
<path d="M119.839 36.9761C120.649 36.9761 121.305 36.3262 121.305 35.5246C121.305 34.7231 120.649 34.0732 119.839 34.0732C119.028 34.0732 118.372 34.7231 118.372 35.5246C118.372 36.3262 119.028 36.9761 119.839 36.9761Z" fill="#101213"/>
<path d="M128.64 54.6831C129.45 54.6831 130.106 54.0333 130.106 53.2317C130.106 52.4301 129.45 51.7803 128.64 51.7803C127.829 51.7803 127.173 52.4301 127.173 53.2317C127.173 54.0333 127.829 54.6831 128.64 54.6831Z" fill="#101213"/>
<path d="M172.908 9.46313H168.493V13.8318H172.908V9.46313Z" fill="#101213"/>
<path d="M177.323 5.09448H172.908V9.46319H177.323V5.09448Z" fill="#101213"/>
<path d="M181.738 9.46313H177.323V13.8318H181.738V9.46313Z" fill="#101213"/>
<path d="M177.323 13.8318H172.908V18.2005H177.323V13.8318Z" fill="#101213"/>
<path d="M45.0019 149.378H40.5868V153.747H45.0019V149.378Z" fill="#101213"/>
<path d="M49.4169 145.009H45.0018V149.378H49.4169V145.009Z" fill="#101213"/>
<path d="M53.832 149.378H49.4169V153.747H53.832V149.378Z" fill="#101213"/>
<path d="M49.4169 153.747H45.0018V158.115H49.4169V153.747Z" fill="#101213"/>
<path d="M22.8618 109.967H18.4467V114.335H22.8618V109.967Z" fill="#101213"/>
<path d="M18.4467 114.335H14.0316V118.704H18.4467V114.335Z" fill="#101213"/>
<path d="M27.2768 114.335H22.8617V118.704H27.2768V114.335Z" fill="#101213"/>
<path d="M22.8618 118.701H18.4467V123.07H22.8618V118.701Z" fill="#101213"/>
<path d="M18.4906 26.6882H9.6604V35.4256H18.4906V26.6882Z" fill="#33D887"/>
<path d="M18.4877 36.1515H9.65748C9.25264 36.1515 8.92407 35.8264 8.92407 35.4258V26.6883C8.92407 26.2878 9.25264 25.9626 9.65748 25.9626H18.4877C18.8925 25.9626 19.2211 26.2878 19.2211 26.6883V35.4258C19.2211 35.8264 18.8955 36.1515 18.4877 36.1515ZM10.3938 34.7001H17.7572V27.414H10.3938V34.7001Z" fill="black"/>
<path d="M18.4906 70.811H9.6604V79.5485H18.4906V70.811Z" fill="#CED4DA"/>
<path d="M18.4877 80.2741H9.65748C9.25264 80.2741 8.92407 79.949 8.92407 79.5484V70.8109C8.92407 70.4103 9.25264 70.0852 9.65748 70.0852H18.4877C18.8925 70.0852 19.2211 70.4103 19.2211 70.8109V79.5484C19.2211 79.949 18.8955 80.2741 18.4877 80.2741ZM10.3938 78.8227H17.7572V71.5366H10.3938V78.8227Z" fill="black"/>
<path d="M18.4906 83.8738H9.6604V92.6112H18.4906V83.8738Z" fill="#CED4DA"/>
<path d="M18.4877 93.3367H9.65748C9.25264 93.3367 8.92407 93.0116 8.92407 92.611V83.8736C8.92407 83.4731 9.25264 83.1479 9.65748 83.1479H18.4877C18.8925 83.1479 19.2211 83.4731 19.2211 83.8736V92.611C19.2211 93.0116 18.8955 93.3367 18.4877 93.3367ZM10.3938 91.8854H17.7572V84.5993H10.3938V91.8854Z" fill="black"/>
<path d="M27.2828 47.2809C28.903 47.2809 30.2164 45.9813 30.2164 44.3781C30.2164 42.775 28.903 41.4753 27.2828 41.4753C25.6626 41.4753 24.3491 42.775 24.3491 44.3781C24.3491 45.9813 25.6626 47.2809 27.2828 47.2809Z" fill="#33D887"/>
<path d="M27.2826 48.0065C25.2614 48.0065 23.6156 46.3781 23.6156 44.378C23.6156 42.378 25.2614 40.7495 27.2826 40.7495C29.3039 40.7495 30.9497 42.378 30.9497 44.378C30.9497 46.3781 29.3039 48.0065 27.2826 48.0065ZM27.2826 42.2009C26.0681 42.2009 25.0824 43.1763 25.0824 44.378C25.0824 45.5798 26.0681 46.5551 27.2826 46.5551C28.4972 46.5551 29.4829 45.5798 29.4829 44.378C29.4829 43.1763 28.4972 42.2009 27.2826 42.2009Z" fill="black"/>
<path d="M27.2828 55.9892C28.903 55.9892 30.2164 54.6896 30.2164 53.0864C30.2164 51.4832 28.903 50.1836 27.2828 50.1836C25.6626 50.1836 24.3491 51.4832 24.3491 53.0864C24.3491 54.6896 25.6626 55.9892 27.2828 55.9892Z" fill="#33D887"/>
<path d="M27.2826 56.715C25.2614 56.715 23.6156 55.0865 23.6156 53.0865C23.6156 51.0865 25.2614 49.458 27.2826 49.458C29.3039 49.458 30.9497 51.0865 30.9497 53.0865C30.9497 55.0865 29.3039 56.715 27.2826 56.715ZM27.2826 50.9094C26.0681 50.9094 25.0824 51.8848 25.0824 53.0865C25.0824 54.2883 26.0681 55.2636 27.2826 55.2636C28.4972 55.2636 29.4829 54.2883 29.4829 53.0865C29.4829 51.8848 28.4972 50.9094 27.2826 50.9094Z" fill="black"/>
<path d="M27.2828 64.6974C28.903 64.6974 30.2164 63.3978 30.2164 61.7946C30.2164 60.1915 28.903 58.8918 27.2828 58.8918C25.6626 58.8918 24.3491 60.1915 24.3491 61.7946C24.3491 63.3978 25.6626 64.6974 27.2828 64.6974Z" fill="#33D887"/>
<path d="M27.2826 65.4232C25.2614 65.4232 23.6156 63.7948 23.6156 61.7948C23.6156 59.7947 25.2614 58.1663 27.2826 58.1663C29.3039 58.1663 30.9497 59.7947 30.9497 61.7948C30.9497 63.7948 29.3039 65.4232 27.2826 65.4232ZM27.2826 59.6177C26.0681 59.6177 25.0824 60.593 25.0824 61.7948C25.0824 62.9965 26.0681 63.9719 27.2826 63.9719C28.4972 63.9719 29.4829 62.9965 29.4829 61.7948C29.4829 60.593 28.4972 59.6177 27.2826 59.6177Z" fill="black"/>
<path d="M24.4958 45.1792H14.0756C13.6707 45.1792 13.3422 44.8541 13.3422 44.4535V35.719H14.809V43.7278H24.4958V45.1792Z" fill="black"/>
<path d="M24.4957 53.9167H14.0725C13.6677 53.9167 13.3391 53.5916 13.3391 53.191V44.4536H14.8059V52.4653H24.4957V53.9167Z" fill="black"/>
<path d="M24.4957 62.625H14.0725C13.6677 62.625 13.3391 62.2999 13.3391 61.8993V53.1619H14.8059V61.1736H24.4957V62.625Z" fill="black"/>
<path d="M177.338 111.288C178.148 111.288 178.805 110.638 178.805 109.836C178.805 109.035 178.148 108.385 177.338 108.385C176.528 108.385 175.871 109.035 175.871 109.836C175.871 110.638 176.528 111.288 177.338 111.288Z" fill="#101213"/>
<path d="M168.537 111.288C169.347 111.288 170.004 110.638 170.004 109.836C170.004 109.035 169.347 108.385 168.537 108.385C167.727 108.385 167.07 109.035 167.07 109.836C167.07 110.638 167.727 111.288 168.537 111.288Z" fill="#101213"/>
<path d="M159.736 111.288C160.546 111.288 161.203 110.638 161.203 109.836C161.203 109.035 160.546 108.385 159.736 108.385C158.926 108.385 158.269 109.035 158.269 109.836C158.269 110.638 158.926 111.288 159.736 111.288Z" fill="#101213"/>
<path d="M150.935 111.288C151.745 111.288 152.402 110.638 152.402 109.836C152.402 109.035 151.745 108.385 150.935 108.385C150.125 108.385 149.468 109.035 149.468 109.836C149.468 110.638 150.125 111.288 150.935 111.288Z" fill="#101213"/>
<path d="M177.338 119.996C178.148 119.996 178.805 119.346 178.805 118.544C178.805 117.743 178.148 117.093 177.338 117.093C176.528 117.093 175.871 117.743 175.871 118.544C175.871 119.346 176.528 119.996 177.338 119.996Z" fill="#101213"/>
<path d="M168.537 119.996C169.347 119.996 170.004 119.346 170.004 118.544C170.004 117.743 169.347 117.093 168.537 117.093C167.727 117.093 167.07 117.743 167.07 118.544C167.07 119.346 167.727 119.996 168.537 119.996Z" fill="#101213"/>
<path d="M159.736 119.996C160.546 119.996 161.203 119.346 161.203 118.544C161.203 117.743 160.546 117.093 159.736 117.093C158.926 117.093 158.269 117.743 158.269 118.544C158.269 119.346 158.926 119.996 159.736 119.996Z" fill="#101213"/>
<path d="M150.935 119.996C151.745 119.996 152.402 119.346 152.402 118.544C152.402 117.743 151.745 117.093 150.935 117.093C150.125 117.093 149.468 117.743 149.468 118.544C149.468 119.346 150.125 119.996 150.935 119.996Z" fill="#101213"/>
<path d="M177.338 128.995C178.148 128.995 178.805 128.345 178.805 127.543C178.805 126.742 178.148 126.092 177.338 126.092C176.528 126.092 175.871 126.742 175.871 127.543C175.871 128.345 176.528 128.995 177.338 128.995Z" fill="#101213"/>
<path d="M168.537 128.995C169.347 128.995 170.004 128.345 170.004 127.543C170.004 126.742 169.347 126.092 168.537 126.092C167.727 126.092 167.07 126.742 167.07 127.543C167.07 128.345 167.727 128.995 168.537 128.995Z" fill="#101213"/>
<path d="M159.736 128.995C160.546 128.995 161.203 128.345 161.203 127.543C161.203 126.742 160.546 126.092 159.736 126.092C158.926 126.092 158.269 126.742 158.269 127.543C158.269 128.345 158.926 128.995 159.736 128.995Z" fill="#101213"/>
<path d="M150.935 128.995C151.745 128.995 152.402 128.345 152.402 127.543C152.402 126.742 151.745 126.092 150.935 126.092C150.125 126.092 149.468 126.742 149.468 127.543C149.468 128.345 150.125 128.995 150.935 128.995Z" fill="#101213"/>
<path d="M177.338 137.703C178.148 137.703 178.805 137.053 178.805 136.252C178.805 135.45 178.148 134.8 177.338 134.8C176.528 134.8 175.871 135.45 175.871 136.252C175.871 137.053 176.528 137.703 177.338 137.703Z" fill="#101213"/>
<path d="M168.537 137.703C169.347 137.703 170.004 137.053 170.004 136.252C170.004 135.45 169.347 134.8 168.537 134.8C167.727 134.8 167.07 135.45 167.07 136.252C167.07 137.053 167.727 137.703 168.537 137.703Z" fill="#101213"/>
<path d="M159.736 137.703C160.546 137.703 161.203 137.053 161.203 136.252C161.203 135.45 160.546 134.8 159.736 134.8C158.926 134.8 158.269 135.45 158.269 136.252C158.269 137.053 158.926 137.703 159.736 137.703Z" fill="#101213"/>
<path d="M150.935 137.703C151.745 137.703 152.402 137.053 152.402 136.252C152.402 135.45 151.745 134.8 150.935 134.8C150.125 134.8 149.468 135.45 149.468 136.252C149.468 137.053 150.125 137.703 150.935 137.703Z" fill="#101213"/>
<path d="M177.338 146.411C178.148 146.411 178.805 145.762 178.805 144.96C178.805 144.158 178.148 143.509 177.338 143.509C176.528 143.509 175.871 144.158 175.871 144.96C175.871 145.762 176.528 146.411 177.338 146.411Z" fill="#101213"/>
<path d="M168.537 146.411C169.347 146.411 170.004 145.762 170.004 144.96C170.004 144.158 169.347 143.509 168.537 143.509C167.727 143.509 167.07 144.158 167.07 144.96C167.07 145.762 167.727 146.411 168.537 146.411Z" fill="#101213"/>
<path d="M159.736 146.411C160.546 146.411 161.203 145.762 161.203 144.96C161.203 144.158 160.546 143.509 159.736 143.509C158.926 143.509 158.269 144.158 158.269 144.96C158.269 145.762 158.926 146.411 159.736 146.411Z" fill="#101213"/>
<path d="M150.935 146.411C151.745 146.411 152.402 145.762 152.402 144.96C152.402 144.158 151.745 143.509 150.935 143.509C150.125 143.509 149.468 144.158 149.468 144.96C149.468 145.762 150.125 146.411 150.935 146.411Z" fill="#101213"/>
<path d="M177.338 155.12C178.148 155.12 178.805 154.47 178.805 153.668C178.805 152.867 178.148 152.217 177.338 152.217C176.528 152.217 175.871 152.867 175.871 153.668C175.871 154.47 176.528 155.12 177.338 155.12Z" fill="#101213"/>
<path d="M168.537 155.12C169.347 155.12 170.004 154.47 170.004 153.668C170.004 152.867 169.347 152.217 168.537 152.217C167.727 152.217 167.07 152.867 167.07 153.668C167.07 154.47 167.727 155.12 168.537 155.12Z" fill="#101213"/>
<path d="M159.736 155.12C160.546 155.12 161.203 154.47 161.203 153.668C161.203 152.867 160.546 152.217 159.736 152.217C158.926 152.217 158.269 152.867 158.269 153.668C158.269 154.47 158.926 155.12 159.736 155.12Z" fill="#101213"/>
<path d="M150.935 155.12C151.745 155.12 152.402 154.47 152.402 153.668C152.402 152.867 151.745 152.217 150.935 152.217C150.125 152.217 149.468 152.867 149.468 153.668C149.468 154.47 150.125 155.12 150.935 155.12Z" fill="#101213"/>
<path d="M177.338 163.828C178.148 163.828 178.805 163.179 178.805 162.377C178.805 161.575 178.148 160.926 177.338 160.926C176.528 160.926 175.871 161.575 175.871 162.377C175.871 163.179 176.528 163.828 177.338 163.828Z" fill="#101213"/>
<path d="M168.537 163.828C169.347 163.828 170.004 163.179 170.004 162.377C170.004 161.575 169.347 160.926 168.537 160.926C167.727 160.926 167.07 161.575 167.07 162.377C167.07 163.179 167.727 163.828 168.537 163.828Z" fill="#101213"/>
<path d="M159.736 163.828C160.546 163.828 161.203 163.179 161.203 162.377C161.203 161.575 160.546 160.926 159.736 160.926C158.926 160.926 158.269 161.575 158.269 162.377C158.269 163.179 158.926 163.828 159.736 163.828Z" fill="#101213"/>
<path d="M141.841 111.288C142.651 111.288 143.308 110.638 143.308 109.836C143.308 109.035 142.651 108.385 141.841 108.385C141.031 108.385 140.374 109.035 140.374 109.836C140.374 110.638 141.031 111.288 141.841 111.288Z" fill="#101213"/>
<path d="M133.04 111.288C133.85 111.288 134.507 110.638 134.507 109.836C134.507 109.035 133.85 108.385 133.04 108.385C132.23 108.385 131.573 109.035 131.573 109.836C131.573 110.638 132.23 111.288 133.04 111.288Z" fill="#101213"/>
<path d="M141.841 119.996C142.651 119.996 143.308 119.346 143.308 118.544C143.308 117.743 142.651 117.093 141.841 117.093C141.031 117.093 140.374 117.743 140.374 118.544C140.374 119.346 141.031 119.996 141.841 119.996Z" fill="#101213"/>
<path d="M133.04 119.996C133.85 119.996 134.507 119.346 134.507 118.544C134.507 117.743 133.85 117.093 133.04 117.093C132.23 117.093 131.573 117.743 131.573 118.544C131.573 119.346 132.23 119.996 133.04 119.996Z" fill="#101213"/>
<path d="M141.841 128.995C142.651 128.995 143.308 128.345 143.308 127.543C143.308 126.742 142.651 126.092 141.841 126.092C141.031 126.092 140.374 126.742 140.374 127.543C140.374 128.345 141.031 128.995 141.841 128.995Z" fill="#101213"/>
<path d="M133.04 128.995C133.85 128.995 134.507 128.345 134.507 127.543C134.507 126.742 133.85 126.092 133.04 126.092C132.23 126.092 131.573 126.742 131.573 127.543C131.573 128.345 132.23 128.995 133.04 128.995Z" fill="#101213"/>
<path d="M141.841 137.703C142.651 137.703 143.308 137.053 143.308 136.252C143.308 135.45 142.651 134.8 141.841 134.8C141.031 134.8 140.374 135.45 140.374 136.252C140.374 137.053 141.031 137.703 141.841 137.703Z" fill="#101213"/>
<path d="M141.841 146.411C142.651 146.411 143.308 145.762 143.308 144.96C143.308 144.158 142.651 143.509 141.841 143.509C141.031 143.509 140.374 144.158 140.374 144.96C140.374 145.762 141.031 146.411 141.841 146.411Z" fill="#101213"/>
<path d="M141.841 155.12C142.651 155.12 143.308 154.47 143.308 153.668C143.308 152.867 142.651 152.217 141.841 152.217C141.031 152.217 140.374 152.867 140.374 153.668C140.374 154.47 141.031 155.12 141.841 155.12Z" fill="#101213"/>
<path d="M141.841 163.828C142.651 163.828 143.308 163.179 143.308 162.377C143.308 161.575 142.651 160.926 141.841 160.926C141.031 160.926 140.374 161.575 140.374 162.377C140.374 163.179 141.031 163.828 141.841 163.828Z" fill="#101213"/>
<path d="M150.935 163.828C151.745 163.828 152.402 163.179 152.402 162.377C152.402 161.575 151.745 160.926 150.935 160.926C150.125 160.926 149.468 161.575 149.468 162.377C149.468 163.179 150.125 163.828 150.935 163.828Z" fill="#101213"/>
<path d="M62.6328 45.2344H36.0864C35.6816 45.2344 35.353 44.9092 35.353 44.5087C35.353 44.1081 35.6816 43.783 36.0864 43.783H62.6328C63.0377 43.783 63.3662 44.1081 63.3662 44.5087C63.3662 44.9092 63.0377 45.2344 62.6328 45.2344Z" fill="black"/>
<path d="M62.6328 53.9426H36.0864C35.6816 53.9426 35.353 53.6175 35.353 53.2169C35.353 52.8163 35.6816 52.4912 36.0864 52.4912H62.6328C63.0377 52.4912 63.3662 52.8163 63.3662 53.2169C63.3662 53.6175 63.0377 53.9426 62.6328 53.9426Z" fill="black"/>
<path d="M62.6328 62.6511H36.0864C35.6816 62.6511 35.353 62.326 35.353 61.9254C35.353 61.5248 35.6816 61.1997 36.0864 61.1997H62.6328C63.0377 61.1997 63.3662 61.5248 63.3662 61.9254C63.3662 62.326 63.0377 62.6511 62.6328 62.6511Z" fill="black"/>
<path d="M22.8412 32.131C22.5185 32.131 22.2222 31.9191 22.1342 31.594C22.0286 31.2079 22.2603 30.8073 22.6505 30.7028C22.7796 30.668 23.0788 30.5867 62.6358 30.6767C63.0406 30.6767 63.3692 31.0018 63.3663 31.4053C63.3663 31.8059 63.0377 32.1281 62.6329 32.1281C62.6329 32.1281 62.6329 32.1281 62.6299 32.1281C51.9515 32.1049 24.1085 32.0555 22.9321 32.1223C22.9028 32.1281 22.8705 32.131 22.8412 32.131Z" fill="black"/>
<path d="M62.5742 75.8152H22.8412C22.4364 75.8152 22.1078 75.4901 22.1078 75.0895C22.1078 74.6889 22.4364 74.3638 22.8412 74.3638H62.5742C62.9791 74.3638 63.3076 74.6889 63.3076 75.0895C63.3076 75.4901 62.9791 75.8152 62.5742 75.8152Z" fill="black"/>
<path d="M62.5742 88.9214H22.8412C22.4364 88.9214 22.1078 88.5963 22.1078 88.1957C22.1078 87.7951 22.4364 87.47 22.8412 87.47H62.5742C62.9791 87.47 63.3076 87.7951 63.3076 88.1957C63.3076 88.5963 62.9791 88.9214 62.5742 88.9214Z" fill="black"/>
<path d="M80.2494 79.3565L89.0796 70.6219L97.9128 79.3623L115.579 61.8845L124.406 70.6219L97.9186 96.8313L80.2494 79.3565Z" fill="#33D887"/>
<path d="M97.9186 97.5571C97.7309 97.5571 97.5431 97.4875 97.3994 97.3452L79.7301 79.8704C79.5923 79.734 79.516 79.5482 79.516 79.3566C79.516 79.165 79.5923 78.9792 79.7301 78.8428L88.5604 70.1054C88.8479 69.8209 89.3114 69.8209 89.5989 70.1054L97.9157 78.3348L115.063 61.368C115.338 61.0951 115.825 61.0951 116.101 61.368L124.931 70.1054C125.219 70.3899 125.219 70.8485 124.931 71.133L98.4437 97.3423C98.2941 97.4875 98.1064 97.5571 97.9186 97.5571ZM81.285 79.3566L97.9157 95.8039L123.368 70.6192L115.576 62.9094L98.4291 79.8762C98.1416 80.1607 97.6781 80.1607 97.3906 79.8762L89.0737 71.6468L81.285 79.3566Z" fill="#33D887"/>
</g>
<defs>
<clipPath id="clip0">
<rect width="200" height="176.238" fill="white"/>
</clipPath>
</defs>
</svg>
