<svg width="64" height="64" viewBox="0 0 64 64" fill="none" xmlns="http://www.w3.org/2000/svg">
<g clip-path="url(#clip0)">
<path d="M63.6247 54.6773L59.1056 50.1582H40.9452V54.6773H63.6247Z" fill="#CED4DA"/>
<path d="M63.6247 55.053H40.9452C40.738 55.053 40.5698 54.8848 40.5698 54.6776V50.1585C40.5698 49.9514 40.738 49.7832 40.9452 49.7832H59.1056C59.2047 49.7832 59.3008 49.8222 59.3713 49.8928L63.8904 54.4119C63.997 54.5185 64.0301 54.6806 63.9715 54.8203C63.913 54.9614 63.7763 55.053 63.6247 55.053ZM41.3205 54.3023H62.7179L58.9495 50.5339H41.3205V54.3023Z" fill="#CED4DA"/>
<path d="M0.375366 54.6768L4.89446 50.1577H22.9288V54.6768H0.375366Z" fill="#CED4DA"/>
<path d="M22.9288 55.0524H0.375387C0.22375 55.0524 0.0871258 54.9609 0.0285728 54.8212C-0.0299803 54.6816 0.00304966 54.5195 0.109646 54.4129L4.62874 49.8938C4.69931 49.8232 4.79389 49.7842 4.89448 49.7842H22.9288C23.136 49.7842 23.3042 49.9523 23.3042 50.1595V54.6786C23.3042 54.8843 23.136 55.0524 22.9288 55.0524ZM1.28071 54.3018H22.5535V50.5334H5.04912L1.28071 54.3018Z" fill="#CED4DA"/>
<path d="M34.2355 9.51758H29.7164V16.2677H34.2355V9.51758Z" fill="#DEE2E6"/>
<path d="M34.2355 16.6434H29.7164C29.5092 16.6434 29.3411 16.4752 29.3411 16.268V9.51792C29.3411 9.31073 29.5092 9.14258 29.7164 9.14258H34.2355C34.4427 9.14258 34.6108 9.31073 34.6108 9.51792V16.268C34.6108 16.4752 34.4427 16.6434 34.2355 16.6434ZM30.0917 15.8927H33.8602V9.89326H30.0917V15.8927Z" fill="#101213"/>
<path d="M36.4605 16.2676H27.4224V18.5271H36.4605V16.2676Z" fill="#ADB5BD"/>
<path d="M36.4591 18.9028H27.4209C27.2137 18.9028 27.0455 18.7347 27.0455 18.5275V16.2679C27.0455 16.0607 27.2137 15.8926 27.4209 15.8926H36.4591C36.6663 15.8926 36.8344 16.0607 36.8344 16.2679V18.5275C36.8344 18.7347 36.6663 18.9028 36.4591 18.9028ZM27.7977 18.1521H36.0852V16.6433H27.7977V18.1521Z" fill="#101213"/>
<path d="M38.7682 47.8989H25.1058V50.1585H38.7682V47.8989Z" fill="#33D887"/>
<path d="M38.7682 50.5342H25.1058C24.8986 50.5342 24.7305 50.366 24.7305 50.1588V47.8993C24.7305 47.6921 24.8986 47.5239 25.1058 47.5239H38.7682C38.9754 47.5239 39.1435 47.6921 39.1435 47.8993V50.1588C39.1435 50.366 38.9754 50.5342 38.7682 50.5342ZM25.4811 49.7835H38.3928V48.2746H25.4811V49.7835Z" fill="#33D887"/>
<path d="M31.8619 43.3813H25.1628V45.6409H31.8619V43.3813Z" fill="#33D887"/>
<path d="M31.8619 46.0166H25.1628C24.9556 46.0166 24.7875 45.8484 24.7875 45.6412V43.3817C24.7875 43.1745 24.9556 43.0063 25.1628 43.0063H31.8619C32.0691 43.0063 32.2372 43.1745 32.2372 43.3817V45.6412C32.2372 45.8484 32.0691 46.0166 31.8619 46.0166ZM25.5382 45.2659H31.4865V43.757H25.5382V45.2659Z" fill="#33D887"/>
<path d="M31.976 12.4735C32.3906 12.4735 32.7267 12.1374 32.7267 11.7228C32.7267 11.3083 32.3906 10.9722 31.976 10.9722C31.5614 10.9722 31.2253 11.3083 31.2253 11.7228C31.2253 12.1374 31.5614 12.4735 31.976 12.4735Z" fill="#101213"/>
<path d="M38.7681 12.4735C39.1827 12.4735 39.5188 12.1374 39.5188 11.7228C39.5188 11.3083 39.1827 10.9722 38.7681 10.9722C38.3535 10.9722 38.0175 11.3083 38.0175 11.7228C38.0175 12.1374 38.3535 12.4735 38.7681 12.4735Z" fill="#101213"/>
<path d="M43.2723 12.4735C43.6869 12.4735 44.023 12.1374 44.023 11.7228C44.023 11.3083 43.6869 10.9722 43.2723 10.9722C42.8577 10.9722 42.5216 11.3083 42.5216 11.7228C42.5216 12.1374 42.8577 12.4735 43.2723 12.4735Z" fill="#101213"/>
<path d="M47.7763 12.4735C48.1909 12.4735 48.527 12.1374 48.527 11.7228C48.527 11.3083 48.1909 10.9722 47.7763 10.9722C47.3617 10.9722 47.0256 11.3083 47.0256 11.7228C47.0256 12.1374 47.3617 12.4735 47.7763 12.4735Z" fill="#101213"/>
<path d="M52.2805 12.4735C52.6951 12.4735 53.0312 12.1374 53.0312 11.7228C53.0312 11.3083 52.6951 10.9722 52.2805 10.9722C51.8659 10.9722 51.5298 11.3083 51.5298 11.7228C51.5298 12.1374 51.8659 12.4735 52.2805 12.4735Z" fill="#101213"/>
<path d="M56.7845 12.4735C57.1991 12.4735 57.5352 12.1374 57.5352 11.7228C57.5352 11.3083 57.1991 10.9722 56.7845 10.9722C56.3699 10.9722 56.0338 11.3083 56.0338 11.7228C56.0338 12.1374 56.3699 12.4735 56.7845 12.4735Z" fill="#101213"/>
<path d="M61.4387 12.4735C61.8533 12.4735 62.1893 12.1374 62.1893 11.7228C62.1893 11.3083 61.8533 10.9722 61.4387 10.9722C61.0241 10.9722 60.688 11.3083 60.688 11.7228C60.688 12.1374 61.0241 12.4735 61.4387 12.4735Z" fill="#101213"/>
<path d="M38.7681 16.9784C39.1827 16.9784 39.5188 16.6423 39.5188 16.2277C39.5188 15.8131 39.1827 15.4771 38.7681 15.4771C38.3535 15.4771 38.0175 15.8131 38.0175 16.2277C38.0175 16.6423 38.3535 16.9784 38.7681 16.9784Z" fill="#101213"/>
<path d="M43.2723 16.9784C43.6869 16.9784 44.023 16.6423 44.023 16.2277C44.023 15.8131 43.6869 15.4771 43.2723 15.4771C42.8577 15.4771 42.5216 15.8131 42.5216 16.2277C42.5216 16.6423 42.8577 16.9784 43.2723 16.9784Z" fill="#101213"/>
<path d="M47.7763 16.9784C48.1909 16.9784 48.527 16.6423 48.527 16.2277C48.527 15.8131 48.1909 15.4771 47.7763 15.4771C47.3617 15.4771 47.0256 15.8131 47.0256 16.2277C47.0256 16.6423 47.3617 16.9784 47.7763 16.9784Z" fill="#101213"/>
<path d="M52.2805 16.9784C52.6951 16.9784 53.0312 16.6423 53.0312 16.2277C53.0312 15.8131 52.6951 15.4771 52.2805 15.4771C51.8659 15.4771 51.5298 15.8131 51.5298 16.2277C51.5298 16.6423 51.8659 16.9784 52.2805 16.9784Z" fill="#101213"/>
<path d="M56.7845 16.9784C57.1991 16.9784 57.5352 16.6423 57.5352 16.2277C57.5352 15.8131 57.1991 15.4771 56.7845 15.4771C56.3699 15.4771 56.0338 15.8131 56.0338 16.2277C56.0338 16.6423 56.3699 16.9784 56.7845 16.9784Z" fill="#101213"/>
<path d="M61.4387 16.9784C61.8533 16.9784 62.1893 16.6423 62.1893 16.2277C62.1893 15.8131 61.8533 15.4771 61.4387 15.4771C61.0241 15.4771 60.688 15.8131 60.688 16.2277C60.688 16.6423 61.0241 16.9784 61.4387 16.9784Z" fill="#101213"/>
<path d="M43.2723 21.4818C43.6869 21.4818 44.023 21.1457 44.023 20.7311C44.023 20.3166 43.6869 19.9805 43.2723 19.9805C42.8577 19.9805 42.5216 20.3166 42.5216 20.7311C42.5216 21.1457 42.8577 21.4818 43.2723 21.4818Z" fill="#101213"/>
<path d="M47.7763 21.4818C48.1909 21.4818 48.527 21.1457 48.527 20.7311C48.527 20.3166 48.1909 19.9805 47.7763 19.9805C47.3617 19.9805 47.0256 20.3166 47.0256 20.7311C47.0256 21.1457 47.3617 21.4818 47.7763 21.4818Z" fill="#101213"/>
<path d="M52.2805 21.4818C52.6951 21.4818 53.0312 21.1457 53.0312 20.7311C53.0312 20.3166 52.6951 19.9805 52.2805 19.9805C51.8659 19.9805 51.5298 20.3166 51.5298 20.7311C51.5298 21.1457 51.8659 21.4818 52.2805 21.4818Z" fill="#101213"/>
<path d="M56.7845 21.4818C57.1991 21.4818 57.5352 21.1457 57.5352 20.7311C57.5352 20.3166 57.1991 19.9805 56.7845 19.9805C56.3699 19.9805 56.0338 20.3166 56.0338 20.7311C56.0338 21.1457 56.3699 21.4818 56.7845 21.4818Z" fill="#101213"/>
<path d="M61.4387 21.4818C61.8533 21.4818 62.1893 21.1457 62.1893 20.7311C62.1893 20.3166 61.8533 19.9805 61.4387 19.9805C61.0241 19.9805 60.688 20.3166 60.688 20.7311C60.688 21.1457 61.0241 21.4818 61.4387 21.4818Z" fill="#101213"/>
<path d="M47.7763 25.9857C48.1909 25.9857 48.527 25.6497 48.527 25.2351C48.527 24.8205 48.1909 24.4844 47.7763 24.4844C47.3617 24.4844 47.0256 24.8205 47.0256 25.2351C47.0256 25.6497 47.3617 25.9857 47.7763 25.9857Z" fill="#101213"/>
<path d="M52.2805 25.9857C52.6951 25.9857 53.0312 25.6497 53.0312 25.2351C53.0312 24.8205 52.6951 24.4844 52.2805 24.4844C51.8659 24.4844 51.5298 24.8205 51.5298 25.2351C51.5298 25.6497 51.8659 25.9857 52.2805 25.9857Z" fill="#101213"/>
<path d="M56.7845 25.9857C57.1991 25.9857 57.5352 25.6497 57.5352 25.2351C57.5352 24.8205 57.1991 24.4844 56.7845 24.4844C56.3699 24.4844 56.0338 24.8205 56.0338 25.2351C56.0338 25.6497 56.3699 25.9857 56.7845 25.9857Z" fill="#101213"/>
<path d="M61.4387 25.9857C61.8533 25.9857 62.1893 25.6497 62.1893 25.2351C62.1893 24.8205 61.8533 24.4844 61.4387 24.4844C61.0241 24.4844 60.688 24.8205 60.688 25.2351C60.688 25.6497 61.0241 25.9857 61.4387 25.9857Z" fill="#101213"/>
<path d="M52.2805 30.6405C52.6951 30.6405 53.0312 30.3044 53.0312 29.8898C53.0312 29.4753 52.6951 29.1392 52.2805 29.1392C51.8659 29.1392 51.5298 29.4753 51.5298 29.8898C51.5298 30.3044 51.8659 30.6405 52.2805 30.6405Z" fill="#101213"/>
<path d="M56.7845 30.6405C57.1991 30.6405 57.5352 30.3044 57.5352 29.8898C57.5352 29.4753 57.1991 29.1392 56.7845 29.1392C56.3699 29.1392 56.0338 29.4753 56.0338 29.8898C56.0338 30.3044 56.3699 30.6405 56.7845 30.6405Z" fill="#101213"/>
<path d="M61.4387 30.6405C61.8533 30.6405 62.1893 30.3044 62.1893 29.8898C62.1893 29.4753 61.8533 29.1392 61.4387 29.1392C61.0241 29.1392 60.688 29.4753 60.688 29.8898C60.688 30.3044 61.0241 30.6405 61.4387 30.6405Z" fill="#101213"/>
<path d="M56.7845 35.1439C57.1991 35.1439 57.5352 34.8078 57.5352 34.3933C57.5352 33.9787 57.1991 33.6426 56.7845 33.6426C56.3699 33.6426 56.0338 33.9787 56.0338 34.3933C56.0338 34.8078 56.3699 35.1439 56.7845 35.1439Z" fill="#101213"/>
<path d="M61.4387 35.1439C61.8533 35.1439 62.1893 34.8078 62.1893 34.3933C62.1893 33.9787 61.8533 33.6426 61.4387 33.6426C61.0241 33.6426 60.688 33.9787 60.688 34.3933C60.688 34.8078 61.0241 35.1439 61.4387 35.1439Z" fill="#101213"/>
<path d="M61.4387 39.6474C61.8533 39.6474 62.1893 39.3113 62.1893 38.8967C62.1893 38.4821 61.8533 38.146 61.4387 38.146C61.0241 38.146 60.688 38.4821 60.688 38.8967C60.688 39.3113 61.0241 39.6474 61.4387 39.6474Z" fill="#101213"/>
<path d="M2.62747 11.7642H0.36792V14.0237H2.62747V11.7642Z" fill="#101213"/>
<path d="M4.88699 9.50488H2.62744V11.7644H4.88699V9.50488Z" fill="#101213"/>
<path d="M7.14651 11.7642H4.88696V14.0237H7.14651V11.7642Z" fill="#101213"/>
<path d="M4.88699 14.0239H2.62744V16.2835H4.88699V14.0239Z" fill="#101213"/>
<path d="M9.38345 32.0332H7.1239V34.2927H9.38345V32.0332Z" fill="#101213"/>
<path d="M11.6431 29.7725H9.38354V32.032H11.6431V29.7725Z" fill="#101213"/>
<path d="M13.9026 32.0332H11.6431V34.2927H13.9026V32.0332Z" fill="#101213"/>
<path d="M11.6431 34.292H9.38354V36.5515H11.6431V34.292Z" fill="#101213"/>
<path d="M16.1397 18.5205H13.8801V20.7801H16.1397V18.5205Z" fill="#101213"/>
<path d="M18.3992 16.2598H16.1396V18.5193H18.3992V16.2598Z" fill="#101213"/>
<path d="M20.6587 18.5205H18.3992V20.7801H20.6587V18.5205Z" fill="#101213"/>
<path d="M18.3992 20.7803H16.1396V23.0398H18.3992V20.7803Z" fill="#101213"/>
<path d="M40.9451 55.0523H22.9288C22.7216 55.0523 22.5535 54.8842 22.5535 54.677V23.0193C22.5535 22.9202 22.5925 22.8241 22.6631 22.7536L27.1566 18.26C27.2272 18.1894 27.3218 18.1504 27.4224 18.1504L36.4441 18.1669C36.5431 18.1669 36.6377 18.2059 36.7083 18.2765L41.2109 22.7791C41.2814 22.8496 41.3205 22.9442 41.3205 23.0448V54.677C41.3205 54.8842 41.1523 55.0523 40.9451 55.0523ZM23.3041 54.3017H40.5698V23.201L36.2879 18.9176L27.577 18.9011L23.3041 23.1739V54.3017Z" fill="#101213"/>
</g>
<defs>
<clipPath id="clip0">
<rect width="64" height="64" fill="white"/>
</clipPath>
</defs>
</svg>
